<svg class="marks" width="195.393" height="398" viewBox="0 0 195.393 398" version="1.1" xmlns="http://www.w3.org/2000/svg" xmlns:xlink="http://www.w3.org/1999/xlink"><g transform="translate(0,0)"><g class="mark-group role-frame root"><g transform="translate(0,0)"><path class="background" d="M0,0h195.393v398h-195.393Z" style="fill: none;"></path><g><g class="mark-path role-mark" style="pointer-events: none;"><path transform="translate(0,0)" d="M75.3929999999713,89.9976541125C75.3929999999713,54.00822705625 75.3930000000574,54.00822705625 75.3930000000574,18.0188" style="fill: none; stroke: #ccc; stroke-width: 0.5;"></path><path transform="translate(0,0)" d="M75.3930000000412,234.0000017625C75.3930000000412,197.999998825 75.3929999999588,197.999998825 75.3929999999588,161.9999958875" style="fill: none; stroke: #ccc; stroke-width: 0.5;"></path><path transform="translate(0,0)" d="M75.393,306.0023505880875C75.393,270.0011761752937 75.3930000000412,270.0011761752937 75.3930000000412,234.0000017625" style="fill: none; stroke: #ccc; stroke-width: 0.5;"></path><path transform="translate(0,0)" d="M75.393,377.981195298825C75.393,341.9917729434562 75.393,341.9917729434562 75.393,306.0023505880875" style="fill: none; stroke: #ccc; stroke-width: 0.5;"></path><path transform="translate(0,0)" d="M75.3929999999588,161.9999958875C75.3929999999588,125.99882500000001 75.3929999999713,125.99882500000001 75.3929999999713,89.9976541125" style="fill: none; stroke: #ccc; stroke-width: 0.5;"></path></g><g class="mark-symbol role-mark nodes"><path transform="translate(75.393,377.981195298825)" d="M5,0A5,5,0,1,1,-5,0A5,5,0,1,1,5,0" style="fill: #3182bd;"></path><path transform="translate(75.3930000000574,18.0188)" d="M5,0A5,5,0,1,1,-5,0A5,5,0,1,1,5,0" style="fill: #6baed6;"></path><path transform="translate(75.3929999999588,161.9999958875)" d="M5,0A5,5,0,1,1,-5,0A5,5,0,1,1,5,0" style="fill: #9ecae1;"></path><path transform="translate(75.3930000000412,234.0000017625)" d="M5,0A5,5,0,1,1,-5,0A5,5,0,1,1,5,0" style="fill: #c6dbef;"></path><path transform="translate(75.393,306.0023505880875)" d="M5,0A5,5,0,1,1,-5,0A5,5,0,1,1,5,0" style="fill: #e6550d;"></path><path transform="translate(75.3929999999713,89.9976541125)" d="M5,0A5,5,0,1,1,-5,0A5,5,0,1,1,5,0" style="fill: #fd8d3c;"></path></g><g class="mark-text role-mark labels"><text text-anchor="start" transform="translate(80.393,373)" style="font-family: sans-serif; font-size: 11px; font-weight: normal; fill: black;">all</text><text text-anchor="start" transform="translate(80.393,13)" style="font-family: sans-serif; font-size: 11px; font-weight: normal; fill: black;">metadata</text><text text-anchor="start" transform="translate(80.393,157)" style="font-family: sans-serif; font-size: 11px; font-weight: normal; fill: black;">packaging_rbuild</text><text text-anchor="start" transform="translate(80.393,229)" style="font-family: sans-serif; font-size: 11px; font-weight: normal; fill: black;">packaging_rcheck</text><text text-anchor="start" transform="translate(80.393,301)" style="font-family: sans-serif; font-size: 11px; font-weight: normal; fill: black;">packaging_rinstall</text><text text-anchor="start" transform="translate(80.393,85)" style="font-family: sans-serif; font-size: 11px; font-weight: normal; fill: black;">packaging_rpack</text></g></g></g></g></g></svg>