<svg class="marks" width="4606.8" height="686" viewBox="0 0 4606.8 686" version="1.1" xmlns="http://www.w3.org/2000/svg" xmlns:xlink="http://www.w3.org/1999/xlink"><g transform="translate(0,0)"><g class="mark-group role-frame root"><g transform="translate(0,0)"><path class="background" d="M0,0h4606.8v686h-4606.8Z" style="fill: none;"></path><g><g class="mark-path role-mark" style="pointer-events: none;"><path transform="translate(0,0)" d="M1709.8634091065182,450.0114137135068C1709.8634091065182,414.0170150137828 1702.8021988083112,414.0170150137828 1702.8021988083112,378.0226163140588" style="fill: none; stroke: #ccc; stroke-width: 0.5;"></path><path transform="translate(0,0)" d="M3646.545870921129,377.9848104438128C3646.545870921129,341.9973234122338 3646.7659730795954,341.9973234122338 3646.7659730795954,306.0098363806548" style="fill: none; stroke: #ccc; stroke-width: 0.5;"></path><path transform="translate(0,0)" d="M3874.4744744529553,377.98286377595326C3874.4744744529553,341.99635007830403 3646.7659730795954,341.99635007830403 3646.7659730795954,306.0098363806548" style="fill: none; stroke: #ccc; stroke-width: 0.5;"></path><path transform="translate(0,0)" d="M3020.8146664988503,377.9915804090574C3020.8146664988503,342.00070839485613 3646.7659730795954,342.00070839485613 3646.7659730795954,306.0098363806548" style="fill: none; stroke: #ccc; stroke-width: 0.5;"></path><path transform="translate(0,0)" d="M3646.7659730795954,306.0098363806548C3646.7659730795954,270.0162043839788 3646.7999822246766,270.0162043839788 3646.7999822246766,234.02257238730274" style="fill: none; stroke: #ccc; stroke-width: 0.5;"></path><path transform="translate(0,0)" d="M1474.928398614895,450.01352427225066C1474.928398614895,414.0180427147453 1473.800313349406,414.0180427147453 1473.800313349406,378.02256115724" style="fill: none; stroke: #ccc; stroke-width: 0.5;"></path><path transform="translate(0,0)" d="M2750.7993447420845,162.00236264749182C2750.7993447420845,126.01058132374591 2750.8000000000393,126.01058132374591 2750.8000000000393,90.0188" style="fill: none; stroke: #ccc; stroke-width: 0.5;"></path><path transform="translate(0,0)" d="M1253.8499304604193,233.99357366766034C1253.8499304604193,198.01000747703816 1065.8317282652472,198.01000747703816 1065.8317282652472,162.02644128641597" style="fill: none; stroke: #ccc; stroke-width: 0.5;"></path><path transform="translate(0,0)" d="M1024.782197501827,233.99643289321926C1024.782197501827,198.0114370898176 1065.8317282652472,198.0114370898176 1065.8317282652472,162.02644128641597" style="fill: none; stroke: #ccc; stroke-width: 0.5;"></path><path transform="translate(0,0)" d="M2346.705038046707,306.02557352347435C2346.705038046707,234.03232165158727 2526.764192963257,234.03232165158727 2526.764192963257,162.0390697797002" style="fill: none; stroke: #ccc; stroke-width: 0.5;"></path><path transform="translate(0,0)" d="M2911.81190215223,234.03900575938974C2911.81190215223,198.03903776954496 2526.764192963257,198.03903776954496 2526.764192963257,162.0390697797002" style="fill: none; stroke: #ccc; stroke-width: 0.5;"></path><path transform="translate(0,0)" d="M2746.837741283164,234.03851682573986C2746.837741283164,198.03879330272002 2526.764192963257,198.03879330272002 2526.764192963257,162.0390697797002" style="fill: none; stroke: #ccc; stroke-width: 0.5;"></path><path transform="translate(0,0)" d="M2746.7749643605407,306.01001635982226C2746.7749643605407,234.02454306976125 2526.764192963257,234.02454306976125 2526.764192963257,162.0390697797002" style="fill: none; stroke: #ccc; stroke-width: 0.5;"></path><path transform="translate(0,0)" d="M2197.8033108328673,233.99808565128424C2197.8033108328673,198.01857771549223 2526.764192963257,198.01857771549223 2526.764192963257,162.0390697797002" style="fill: none; stroke: #ccc; stroke-width: 0.5;"></path><path transform="translate(0,0)" d="M1976.81649070702,233.99722643486234C1976.81649070702,198.01814810728126 2526.764192963257,198.01814810728126 2526.764192963257,162.0390697797002" style="fill: none; stroke: #ccc; stroke-width: 0.5;"></path><path transform="translate(0,0)" d="M1921.8463196123353,449.98816397555737C1921.8463196123353,306.0136168776288 2526.764192963257,306.0136168776288 2526.764192963257,162.0390697797002" style="fill: none; stroke: #ccc; stroke-width: 0.5;"></path><path transform="translate(0,0)" d="M2346.705038046707,306.02557352347435C2346.705038046707,270.0278107386896 2439.8546717685417,270.0278107386896 2439.8546717685417,234.03004795390487" style="fill: none; stroke: #ccc; stroke-width: 0.5;"></path><path transform="translate(0,0)" d="M2746.7749643605407,306.01001635982226C2746.7749643605407,270.0200321568636 2439.8546717685417,270.0200321568636 2439.8546717685417,234.03004795390487" style="fill: none; stroke: #ccc; stroke-width: 0.5;"></path><path transform="translate(0,0)" d="M4287.800314210877,306.00925767034977C4287.800314210877,270.01590883517486 4287.799999999871,270.01590883517486 4287.799999999871,234.02256" style="fill: none; stroke: #ccc; stroke-width: 0.5;"></path><path transform="translate(0,0)" d="M2197.8033108328673,233.99808565128424C2197.8033108328673,198.0122242565498 2248.7360329688404,198.0122242565498 2248.7360329688404,162.02636286181541" style="fill: none; stroke: #ccc; stroke-width: 0.5;"></path><path transform="translate(0,0)" d="M1976.81649070702,233.99722643486234C1976.81649070702,198.01179464833888 2248.7360329688404,198.01179464833888 2248.7360329688404,162.02636286181541" style="fill: none; stroke: #ccc; stroke-width: 0.5;"></path><path transform="translate(0,0)" d="M2911.81190215223,234.03900575938974C2911.81190215223,198.03231998059144 2911.7999924509536,198.03231998059144 2911.7999924509536,162.02563420179314" style="fill: none; stroke: #ccc; stroke-width: 0.5;"></path><path transform="translate(0,0)" d="M1921.8463196123353,449.98816397555737C1921.8463196123353,414.0059399947178 1907.8046359110253,414.0059399947178 1907.8046359110253,378.0237160138782" style="fill: none; stroke: #ccc; stroke-width: 0.5;"></path><path transform="translate(0,0)" d="M1253.8499304604193,233.99357366766034C1253.8499304604193,198.0115545164993 898.9414005735584,198.0115545164993 898.9414005735584,162.0295353653383" style="fill: none; stroke: #ccc; stroke-width: 0.5;"></path><path transform="translate(0,0)" d="M1024.782197501827,233.99643289321926C1024.782197501827,198.01298412927878 898.9414005735584,198.01298412927878 898.9414005735584,162.0295353653383" style="fill: none; stroke: #ccc; stroke-width: 0.5;"></path><path transform="translate(0,0)" d="M1771.8113456948186,90.00407692186727C1771.8113456948186,54.01278451264244 1643.8001673095187,54.01278451264244 1643.8001673095187,18.02149210341762" style="fill: none; stroke: #ccc; stroke-width: 0.5;"></path><path transform="translate(0,0)" d="M1516.790531212755,90.00403751346047C1516.790531212755,54.012764808439044 1643.8001673095187,54.012764808439044 1643.8001673095187,18.02149210341762" style="fill: none; stroke: #ccc; stroke-width: 0.5;"></path><path transform="translate(0,0)" d="M2022.7597757502979,665.94171436626C2022.7597757502979,593.9610935667934 1916.8619017042813,593.9610935667934 1916.8619017042813,521.9804727673268" style="fill: none; stroke: #ccc; stroke-width: 0.5;"></path><path transform="translate(0,0)" d="M2022.7597757502979,665.94171436626C2022.7597757502979,593.9498406625332 2189.829419414905,593.9498406625332 2189.829419414905,521.9579669588065" style="fill: none; stroke: #ccc; stroke-width: 0.5;"></path><path transform="translate(0,0)" d="M2022.7597757502979,665.94171436626C2022.7597757502979,521.9659792461592 959.89966136398,521.9659792461592 959.89966136398,377.9902441260584" style="fill: none; stroke: #ccc; stroke-width: 0.5;"></path><path transform="translate(0,0)" d="M2022.7597757502979,665.94171436626C2022.7597757502979,629.9746101113844 2349.7278664726487,629.9746101113844 2349.7278664726487,594.0075058565088" style="fill: none; stroke: #ccc; stroke-width: 0.5;"></path><path transform="translate(0,0)" d="M2022.7597757502979,665.94171436626C2022.7597757502979,593.961410476016 1712.9318574589138,593.961410476016 1712.9318574589138,521.9811065857721" style="fill: none; stroke: #ccc; stroke-width: 0.5;"></path><path transform="translate(0,0)" d="M2022.7597757502979,665.94171436626C2022.7597757502979,521.9611611041049 2522.7726925452707,521.9611611041049 2522.7726925452707,377.98060784194973" style="fill: none; stroke: #ccc; stroke-width: 0.5;"></path><path transform="translate(0,0)" d="M2022.7597757502979,665.94171436626C2022.7597757502979,521.9610527531886 1186.954092664727,521.9610527531886 1186.954092664727,377.9803911401172" style="fill: none; stroke: #ccc; stroke-width: 0.5;"></path><path transform="translate(0,0)" d="M1712.9318574589138,521.9811065857721C1712.9318574589138,485.9962601496394 1709.8634091065182,485.9962601496394 1709.8634091065182,450.0114137135068" style="fill: none; stroke: #ccc; stroke-width: 0.5;"></path><path transform="translate(0,0)" d="M1916.8619017042813,521.9804727673268C1916.8619017042813,485.99594324041675 1709.8634091065182,485.99594324041675 1709.8634091065182,450.0114137135068" style="fill: none; stroke: #ccc; stroke-width: 0.5;"></path><path transform="translate(0,0)" d="M2189.829419414905,521.9579669588065C2189.829419414905,485.98469033615663 1709.8634091065182,485.98469033615663 1709.8634091065182,450.0114137135068" style="fill: none; stroke: #ccc; stroke-width: 0.5;"></path><path transform="translate(0,0)" d="M1712.9318574589138,521.9811065857721C1712.9318574589138,485.99731542901134 1474.928398614895,485.99731542901134 1474.928398614895,450.01352427225066" style="fill: none; stroke: #ccc; stroke-width: 0.5;"></path><path transform="translate(0,0)" d="M1916.8619017042813,521.9804727673268C1916.8619017042813,485.9969985197887 1474.928398614895,485.9969985197887 1474.928398614895,450.01352427225066" style="fill: none; stroke: #ccc; stroke-width: 0.5;"></path><path transform="translate(0,0)" d="M2189.829419414905,521.9579669588065C2189.829419414905,485.9857456155286 1474.928398614895,485.9857456155286 1474.928398614895,450.01352427225066" style="fill: none; stroke: #ccc; stroke-width: 0.5;"></path><path transform="translate(0,0)" d="M1186.954092664727,377.9803911401172C1186.954092664727,342.00198482316506 1920.7440563814323,342.00198482316506 1920.7440563814323,306.0235785062129" style="fill: none; stroke: #ccc; stroke-width: 0.5;"></path><path transform="translate(0,0)" d="M959.89966136398,377.9902441260584C959.89966136398,342.00691131613564 1920.7440563814323,342.00691131613564 1920.7440563814323,306.0235785062129" style="fill: none; stroke: #ccc; stroke-width: 0.5;"></path><path transform="translate(0,0)" d="M2912.832159649066,449.9788516222928C2912.832159649066,378.00121506425285 1920.7440563814323,378.00121506425285 1920.7440563814323,306.0235785062129" style="fill: none; stroke: #ccc; stroke-width: 0.5;"></path><path transform="translate(0,0)" d="M2277.831866638583,377.97179885710665C2277.831866638583,341.9976886816598 1920.7440563814323,341.9976886816598 1920.7440563814323,306.0235785062129" style="fill: none; stroke: #ccc; stroke-width: 0.5;"></path><path transform="translate(0,0)" d="M1186.954092664727,377.9803911401172C1186.954092664727,341.9947683988751 852.9534241826698,341.9947683988751 852.9534241826698,306.00914565763304" style="fill: none; stroke: #ccc; stroke-width: 0.5;"></path><path transform="translate(0,0)" d="M959.89966136398,377.9902441260584C959.89966136398,341.9996948918457 852.9534241826698,341.9996948918457 852.9534241826698,306.00914565763304" style="fill: none; stroke: #ccc; stroke-width: 0.5;"></path><path transform="translate(0,0)" d="M1186.954092664727,377.9803911401172C1186.954092664727,341.99506133269267 1213.7688888788682,341.99506133269267 1213.7688888788682,306.0097315252682" style="fill: none; stroke: #ccc; stroke-width: 0.5;"></path><path transform="translate(0,0)" d="M959.89966136398,377.9902441260584C959.89966136398,341.9999878256633 1213.7688888788682,341.9999878256633 1213.7688888788682,306.0097315252682" style="fill: none; stroke: #ccc; stroke-width: 0.5;"></path><path transform="translate(0,0)" d="M1186.954092664727,377.9803911401172C1186.954092664727,342.00200762021905 1566.865182035042,342.00200762021905 1566.865182035042,306.02362410032083" style="fill: none; stroke: #ccc; stroke-width: 0.5;"></path><path transform="translate(0,0)" d="M959.89966136398,377.9902441260584C959.89966136398,342.00693411318963 1566.865182035042,342.00693411318963 1566.865182035042,306.02362410032083" style="fill: none; stroke: #ccc; stroke-width: 0.5;"></path><path transform="translate(0,0)" d="M2912.832159649066,449.9788516222928C2912.832159649066,378.0012378613068 1566.865182035042,378.0012378613068 1566.865182035042,306.02362410032083" style="fill: none; stroke: #ccc; stroke-width: 0.5;"></path><path transform="translate(0,0)" d="M2277.831866638583,377.97179885710665C2277.831866638583,341.99771147871377 1566.865182035042,341.99771147871377 1566.865182035042,306.02362410032083" style="fill: none; stroke: #ccc; stroke-width: 0.5;"></path><path transform="translate(0,0)" d="M1186.954092664727,377.9803911401172C1186.954092664727,341.9956084980071 503.0736930903705,341.9956084980071 503.0736930903705,306.0108258558969" style="fill: none; stroke: #ccc; stroke-width: 0.5;"></path><path transform="translate(0,0)" d="M959.89966136398,377.9902441260584C959.89966136398,342.00053499097766 503.0736930903705,342.00053499097766 503.0736930903705,306.0108258558969" style="fill: none; stroke: #ccc; stroke-width: 0.5;"></path><path transform="translate(0,0)" d="M1186.954092664727,377.9803911401172C1186.954092664727,341.99569733318447 162.22264111859087,341.99569733318447 162.22264111859087,306.01100352625167" style="fill: none; stroke: #ccc; stroke-width: 0.5;"></path><path transform="translate(0,0)" d="M959.89966136398,377.9902441260584C959.89966136398,342.00062382615505 162.22264111859087,342.00062382615505 162.22264111859087,306.01100352625167" style="fill: none; stroke: #ccc; stroke-width: 0.5;"></path><path transform="translate(0,0)" d="M1712.9318574589138,521.9811065857721C1712.9318574589138,485.9799791040324 2912.832159649066,485.9799791040324 2912.832159649066,449.9788516222928" style="fill: none; stroke: #ccc; stroke-width: 0.5;"></path><path transform="translate(0,0)" d="M1916.8619017042813,521.9804727673268C1916.8619017042813,485.97966219480975 2912.832159649066,485.97966219480975 2912.832159649066,449.9788516222928" style="fill: none; stroke: #ccc; stroke-width: 0.5;"></path><path transform="translate(0,0)" d="M2189.829419414905,521.9579669588065C2189.829419414905,485.96840929054963 2912.832159649066,485.96840929054963 2912.832159649066,449.9788516222928" style="fill: none; stroke: #ccc; stroke-width: 0.5;"></path><path transform="translate(0,0)" d="M2353.874625957531,522.0013875021092C2353.874625957531,485.990119562201 2912.832159649066,485.990119562201 2912.832159649066,449.9788516222928" style="fill: none; stroke: #ccc; stroke-width: 0.5;"></path><path transform="translate(0,0)" d="M2912.832159649066,449.9788516222928C2912.832159649066,413.9753252396997 2277.831866638583,413.9753252396997 2277.831866638583,377.97179885710665" style="fill: none; stroke: #ccc; stroke-width: 0.5;"></path><path transform="translate(0,0)" d="M2746.837741283164,234.03851682573986C2746.837741283164,198.02043973661586 2750.7993447420845,198.02043973661586 2750.7993447420845,162.00236264749182" style="fill: none; stroke: #ccc; stroke-width: 0.5;"></path><path transform="translate(0,0)" d="M1186.954092664727,377.9803911401172C1186.954092664727,306.00945398292856 2746.837741283164,306.00945398292856 2746.837741283164,234.03851682573986" style="fill: none; stroke: #ccc; stroke-width: 0.5;"></path><path transform="translate(0,0)" d="M2522.7726925452707,377.98060784194973C2522.7726925452707,306.00956233384477 2746.837741283164,306.00956233384477 2746.837741283164,234.03851682573986" style="fill: none; stroke: #ccc; stroke-width: 0.5;"></path><path transform="translate(0,0)" d="M2189.829419414905,521.9579669588065C2189.829419414905,377.9982418922732 2746.837741283164,377.9982418922732 2746.837741283164,234.03851682573986" style="fill: none; stroke: #ccc; stroke-width: 0.5;"></path><path transform="translate(0,0)" d="M2746.7749643605407,306.01001635982226C2746.7749643605407,270.02426659278103 2746.837741283164,270.02426659278103 2746.837741283164,234.03851682573986" style="fill: none; stroke: #ccc; stroke-width: 0.5;"></path><path transform="translate(0,0)" d="M2277.831866638583,377.97179885710665C2277.831866638583,306.0051578414233 2746.837741283164,306.0051578414233 2746.837741283164,234.03851682573986" style="fill: none; stroke: #ccc; stroke-width: 0.5;"></path><path transform="translate(0,0)" d="M3646.545870921129,377.9848104438128C3646.545870921129,306.01166363477637 2746.837741283164,306.01166363477637 2746.837741283164,234.03851682573986" style="fill: none; stroke: #ccc; stroke-width: 0.5;"></path><path transform="translate(0,0)" d="M4287.339425987058,377.9847533548814C4287.339425987058,306.0116350903106 2746.837741283164,306.0116350903106 2746.837741283164,234.03851682573986" style="fill: none; stroke: #ccc; stroke-width: 0.5;"></path><path transform="translate(0,0)" d="M3231.679487184166,377.9854540247315C3231.679487184166,306.0119854252357 2746.837741283164,306.0119854252357 2746.837741283164,234.03851682573986" style="fill: none; stroke: #ccc; stroke-width: 0.5;"></path><path transform="translate(0,0)" d="M2912.832159649066,449.9788516222928C2912.832159649066,413.9818310330528 3646.545870921129,413.9818310330528 3646.545870921129,377.9848104438128" style="fill: none; stroke: #ccc; stroke-width: 0.5;"></path><path transform="translate(0,0)" d="M2912.832159649066,449.9788516222928C2912.832159649066,413.98521601567506 3020.8146664988503,413.98521601567506 3020.8146664988503,377.9915804090574" style="fill: none; stroke: #ccc; stroke-width: 0.5;"></path><path transform="translate(0,0)" d="M2912.832159649066,449.9788516222928C2912.832159649066,413.980857699123 3874.4744744529553,413.980857699123 3874.4744744529553,377.98286377595326" style="fill: none; stroke: #ccc; stroke-width: 0.5;"></path><path transform="translate(0,0)" d="M1186.954092664727,377.9803911401172C1186.954092664727,342.0029823317958 2346.705038046707,342.0029823317958 2346.705038046707,306.02557352347435" style="fill: none; stroke: #ccc; stroke-width: 0.5;"></path><path transform="translate(0,0)" d="M2522.7726925452707,377.98060784194973C2522.7726925452707,342.003090682712 2346.705038046707,342.003090682712 2346.705038046707,306.02557352347435" style="fill: none; stroke: #ccc; stroke-width: 0.5;"></path><path transform="translate(0,0)" d="M1712.9318574589138,521.9811065857721C1712.9318574589138,414.0033400546232 2346.705038046707,414.0033400546232 2346.705038046707,306.02557352347435" style="fill: none; stroke: #ccc; stroke-width: 0.5;"></path><path transform="translate(0,0)" d="M1916.8619017042813,521.9804727673268C1916.8619017042813,414.00302314540056 2346.705038046707,414.00302314540056 2346.705038046707,306.02557352347435" style="fill: none; stroke: #ccc; stroke-width: 0.5;"></path><path transform="translate(0,0)" d="M2189.829419414905,521.9579669588065C2189.829419414905,413.99177024114044 2346.705038046707,413.99177024114044 2346.705038046707,306.02557352347435" style="fill: none; stroke: #ccc; stroke-width: 0.5;"></path><path transform="translate(0,0)" d="M4287.339425987058,377.9847533548814C4287.339425987058,341.9970055126156 4287.800314210877,341.9970055126156 4287.800314210877,306.00925767034977" style="fill: none; stroke: #ccc; stroke-width: 0.5;"></path><path transform="translate(0,0)" d="M4486.28062332807,377.98288632617897C4486.28062332807,341.99607199826437 4287.800314210877,341.99607199826437 4287.800314210877,306.00925767034977" style="fill: none; stroke: #ccc; stroke-width: 0.5;"></path><path transform="translate(0,0)" d="M4092.4174863264043,377.9935326462091C4092.4174863264043,342.0013951582794 4287.800314210877,342.0013951582794 4287.800314210877,306.00925767034977" style="fill: none; stroke: #ccc; stroke-width: 0.5;"></path><path transform="translate(0,0)" d="M1186.954092664727,377.9803911401172C1186.954092664727,341.99520374996973 2746.7749643605407,341.99520374996973 2746.7749643605407,306.01001635982226" style="fill: none; stroke: #ccc; stroke-width: 0.5;"></path><path transform="translate(0,0)" d="M2522.7726925452707,377.98060784194973C2522.7726925452707,341.995312100886 2746.7749643605407,341.995312100886 2746.7749643605407,306.01001635982226" style="fill: none; stroke: #ccc; stroke-width: 0.5;"></path><path transform="translate(0,0)" d="M2189.829419414905,521.9579669588065C2189.829419414905,413.98399165931437 2746.7749643605407,413.98399165931437 2746.7749643605407,306.01001635982226" style="fill: none; stroke: #ccc; stroke-width: 0.5;"></path><path transform="translate(0,0)" d="M2277.831866638583,377.97179885710665C2277.831866638583,341.99090760846445 2746.7749643605407,341.99090760846445 2746.7749643605407,306.01001635982226" style="fill: none; stroke: #ccc; stroke-width: 0.5;"></path><path transform="translate(0,0)" d="M3020.8146664988503,377.9915804090574C3020.8146664988503,342.0007983844398 2746.7749643605407,342.0007983844398 2746.7749643605407,306.01001635982226" style="fill: none; stroke: #ccc; stroke-width: 0.5;"></path><path transform="translate(0,0)" d="M4092.4174863264043,377.9935326462091C4092.4174863264043,342.00177450301567 2746.7749643605407,342.00177450301567 2746.7749643605407,306.01001635982226" style="fill: none; stroke: #ccc; stroke-width: 0.5;"></path><path transform="translate(0,0)" d="M2804.84826488603,377.9947548082202C2804.84826488603,342.0023855840212 2746.7749643605407,342.0023855840212 2746.7749643605407,306.01001635982226" style="fill: none; stroke: #ccc; stroke-width: 0.5;"></path><path transform="translate(0,0)" d="M1186.954092664727,377.9803911401172C1186.954092664727,306.0096984497535 2911.81190215223,306.0096984497535 2911.81190215223,234.03900575938974" style="fill: none; stroke: #ccc; stroke-width: 0.5;"></path><path transform="translate(0,0)" d="M2522.7726925452707,377.98060784194973C2522.7726925452707,306.0098068006697 2911.81190215223,306.0098068006697 2911.81190215223,234.03900575938974" style="fill: none; stroke: #ccc; stroke-width: 0.5;"></path><path transform="translate(0,0)" d="M2189.829419414905,521.9579669588065C2189.829419414905,377.99848635909814 2911.81190215223,377.99848635909814 2911.81190215223,234.03900575938974" style="fill: none; stroke: #ccc; stroke-width: 0.5;"></path><path transform="translate(0,0)" d="M2746.7749643605407,306.01001635982226C2746.7749643605407,270.02451105960597 2911.81190215223,270.02451105960597 2911.81190215223,234.03900575938974" style="fill: none; stroke: #ccc; stroke-width: 0.5;"></path><path transform="translate(0,0)" d="M2277.831866638583,377.97179885710665C2277.831866638583,306.0054023082482 2911.81190215223,306.0054023082482 2911.81190215223,234.03900575938974" style="fill: none; stroke: #ccc; stroke-width: 0.5;"></path><path transform="translate(0,0)" d="M3874.4744744529553,377.98286377595326C3874.4744744529553,306.01093476767153 2911.81190215223,306.01093476767153 2911.81190215223,234.03900575938974" style="fill: none; stroke: #ccc; stroke-width: 0.5;"></path><path transform="translate(0,0)" d="M4486.28062332807,377.98288632617897C4486.28062332807,306.0109460427843 2911.81190215223,306.0109460427843 2911.81190215223,234.03900575938974" style="fill: none; stroke: #ccc; stroke-width: 0.5;"></path><path transform="translate(0,0)" d="M3432.6224397055325,377.9840770610025C3432.6224397055325,306.0115414101961 2911.81190215223,306.0115414101961 2911.81190215223,234.03900575938974" style="fill: none; stroke: #ccc; stroke-width: 0.5;"></path><path transform="translate(0,0)" d="M2912.832159649066,449.9788516222928C2912.832159649066,413.98180248858705 4287.339425987058,413.98180248858705 4287.339425987058,377.9847533548814" style="fill: none; stroke: #ccc; stroke-width: 0.5;"></path><path transform="translate(0,0)" d="M2912.832159649066,449.9788516222928C2912.832159649066,413.9861921342509 4092.4174863264043,413.9861921342509 4092.4174863264043,377.9935326462091" style="fill: none; stroke: #ccc; stroke-width: 0.5;"></path><path transform="translate(0,0)" d="M2912.832159649066,449.9788516222928C2912.832159649066,413.9808689742359 4486.28062332807,413.9808689742359 4486.28062332807,377.98288632617897" style="fill: none; stroke: #ccc; stroke-width: 0.5;"></path><path transform="translate(0,0)" d="M3231.679487184166,377.9854540247315C3231.679487184166,342.0016422238833 3231.7774871695765,342.0016422238833 3231.7774871695765,306.01783042303515" style="fill: none; stroke: #ccc; stroke-width: 0.5;"></path><path transform="translate(0,0)" d="M3432.6224397055325,377.9840770610025C3432.6224397055325,342.00095374201885 3231.7774871695765,342.00095374201885 3231.7774871695765,306.01783042303515" style="fill: none; stroke: #ccc; stroke-width: 0.5;"></path><path transform="translate(0,0)" d="M2804.84826488603,377.9947548082202C2804.84826488603,342.0062926156277 3231.7774871695765,342.0062926156277 3231.7774871695765,306.01783042303515" style="fill: none; stroke: #ccc; stroke-width: 0.5;"></path><path transform="translate(0,0)" d="M2912.832159649066,449.9788516222928C2912.832159649066,413.98215282351214 3231.679487184166,413.98215282351214 3231.679487184166,377.9854540247315" style="fill: none; stroke: #ccc; stroke-width: 0.5;"></path><path transform="translate(0,0)" d="M2912.832159649066,449.9788516222928C2912.832159649066,413.9868032152565 2804.84826488603,413.9868032152565 2804.84826488603,377.9947548082202" style="fill: none; stroke: #ccc; stroke-width: 0.5;"></path><path transform="translate(0,0)" d="M2912.832159649066,449.9788516222928C2912.832159649066,413.98146434164767 3432.6224397055325,413.98146434164767 3432.6224397055325,377.9840770610025" style="fill: none; stroke: #ccc; stroke-width: 0.5;"></path><path transform="translate(0,0)" d="M1712.9318574589138,521.9811065857721C1712.9318574589138,485.98463528066475 1921.8463196123353,485.98463528066475 1921.8463196123353,449.98816397555737" style="fill: none; stroke: #ccc; stroke-width: 0.5;"></path><path transform="translate(0,0)" d="M1916.8619017042813,521.9804727673268C1916.8619017042813,485.9843183714421 1921.8463196123353,485.9843183714421 1921.8463196123353,449.98816397555737" style="fill: none; stroke: #ccc; stroke-width: 0.5;"></path><path transform="translate(0,0)" d="M2189.829419414905,521.9579669588065C2189.829419414905,485.973065467182 1921.8463196123353,485.973065467182 1921.8463196123353,449.98816397555737" style="fill: none; stroke: #ccc; stroke-width: 0.5;"></path><path transform="translate(0,0)" d="M1771.7844557126803,162.0139392831142C1771.7844557126803,126.00900810249074 1771.8113456948186,126.00900810249074 1771.8113456948186,90.00407692186727" style="fill: none; stroke: #ccc; stroke-width: 0.5;"></path><path transform="translate(0,0)" d="M2036.6882070018646,162.01145478456942C2036.6882070018646,126.00776585321834 1771.8113456948186,126.00776585321834 1771.8113456948186,90.00407692186727" style="fill: none; stroke: #ccc; stroke-width: 0.5;"></path><path transform="translate(0,0)" d="M2522.7726925452707,377.98060784194973C2522.7726925452707,305.989346746617 2197.8033108328673,305.989346746617 2197.8033108328673,233.99808565128424" style="fill: none; stroke: #ccc; stroke-width: 0.5;"></path><path transform="translate(0,0)" d="M2277.831866638583,377.97179885710665C2277.831866638583,305.98494225419546 2197.8033108328673,305.98494225419546 2197.8033108328673,233.99808565128424" style="fill: none; stroke: #ccc; stroke-width: 0.5;"></path><path transform="translate(0,0)" d="M2197.8033108328673,233.99808565128424C2197.8033108328673,198.00477021792682 2036.6882070018646,198.00477021792682 2036.6882070018646,162.01145478456942" style="fill: none; stroke: #ccc; stroke-width: 0.5;"></path><path transform="translate(0,0)" d="M1253.8499304604193,233.99357366766034C1253.8499304604193,198.0025142261149 2036.6882070018646,198.0025142261149 2036.6882070018646,162.01145478456942" style="fill: none; stroke: #ccc; stroke-width: 0.5;"></path><path transform="translate(0,0)" d="M2197.8033108328673,233.99808565128424C2197.8033108328673,198.00601246719924 1771.7844557126803,198.00601246719924 1771.7844557126803,162.0139392831142" style="fill: none; stroke: #ccc; stroke-width: 0.5;"></path><path transform="translate(0,0)" d="M1253.8499304604193,233.99357366766034C1253.8499304604193,198.00375647538726 1771.7844557126803,198.00375647538726 1771.7844557126803,162.0139392831142" style="fill: none; stroke: #ccc; stroke-width: 0.5;"></path><path transform="translate(0,0)" d="M852.9534241826698,306.00914565763304C852.9534241826698,270.0013596626467 1253.8499304604193,270.0013596626467 1253.8499304604193,233.99357366766034" style="fill: none; stroke: #ccc; stroke-width: 0.5;"></path><path transform="translate(0,0)" d="M1213.7688888788682,306.0097315252682C1213.7688888788682,270.0016525964643 1253.8499304604193,270.0016525964643 1253.8499304604193,233.99357366766034" style="fill: none; stroke: #ccc; stroke-width: 0.5;"></path><path transform="translate(0,0)" d="M1920.7440563814323,306.0235785062129C1920.7440563814323,270.0085760869366 1253.8499304604193,270.0085760869366 1253.8499304604193,233.99357366766034" style="fill: none; stroke: #ccc; stroke-width: 0.5;"></path><path transform="translate(0,0)" d="M1271.8815557477906,162.01186495805538C1271.8815557477906,126.00795123575793 1516.790531212755,126.00795123575793 1516.790531212755,90.00403751346047" style="fill: none; stroke: #ccc; stroke-width: 0.5;"></path><path transform="translate(0,0)" d="M1516.7926276814235,162.01395764116626C1516.7926276814235,126.00899757731337 1516.790531212755,126.00899757731337 1516.790531212755,90.00403751346047" style="fill: none; stroke: #ccc; stroke-width: 0.5;"></path><path transform="translate(0,0)" d="M2522.7726925452707,377.98060784194973C2522.7726925452707,305.988917138406 1976.81649070702,305.988917138406 1976.81649070702,233.99722643486234" style="fill: none; stroke: #ccc; stroke-width: 0.5;"></path><path transform="translate(0,0)" d="M2277.831866638583,377.97179885710665C2277.831866638583,305.9845126459845 1976.81649070702,305.9845126459845 1976.81649070702,233.99722643486234" style="fill: none; stroke: #ccc; stroke-width: 0.5;"></path><path transform="translate(0,0)" d="M1976.81649070702,233.99722643486234C1976.81649070702,198.0055920380143 1516.7926276814235,198.0055920380143 1516.7926276814235,162.01395764116626" style="fill: none; stroke: #ccc; stroke-width: 0.5;"></path><path transform="translate(0,0)" d="M1024.782197501827,233.99643289321926C1024.782197501827,198.00519526719276 1516.7926276814235,198.00519526719276 1516.7926276814235,162.01395764116626" style="fill: none; stroke: #ccc; stroke-width: 0.5;"></path><path transform="translate(0,0)" d="M1976.81649070702,233.99722643486234C1976.81649070702,198.00454569645888 1271.8815557477906,198.00454569645888 1271.8815557477906,162.01186495805538" style="fill: none; stroke: #ccc; stroke-width: 0.5;"></path><path transform="translate(0,0)" d="M1024.782197501827,233.99643289321926C1024.782197501827,198.0041489256373 1271.8815557477906,198.0041489256373 1271.8815557477906,162.01186495805538" style="fill: none; stroke: #ccc; stroke-width: 0.5;"></path><path transform="translate(0,0)" d="M503.0736930903705,306.0108258558969C503.0736930903705,270.00362937455805 1024.782197501827,270.00362937455805 1024.782197501827,233.99643289321926" style="fill: none; stroke: #ccc; stroke-width: 0.5;"></path><path transform="translate(0,0)" d="M162.22264111859087,306.01100352625167C162.22264111859087,270.00371820973544 1024.782197501827,270.00371820973544 1024.782197501827,233.99643289321926" style="fill: none; stroke: #ccc; stroke-width: 0.5;"></path><path transform="translate(0,0)" d="M1566.865182035042,306.02362410032083C1566.865182035042,270.01002849677 1024.782197501827,270.01002849677 1024.782197501827,233.99643289321926" style="fill: none; stroke: #ccc; stroke-width: 0.5;"></path><path transform="translate(0,0)" d="M2022.7597757502979,665.94171436626C2022.7597757502979,629.9729004850299 2206.7838651975067,629.9729004850299 2206.7838651975067,594.0040866037997" style="fill: none; stroke: #ccc; stroke-width: 0.5;"></path><path transform="translate(0,0)" d="M2349.7278664726487,594.0075058565088C2349.7278664726487,558.004446679309 2353.874625957531,558.004446679309 2353.874625957531,522.0013875021092" style="fill: none; stroke: #ccc; stroke-width: 0.5;"></path><path transform="translate(0,0)" d="M2206.7838651975067,594.0040866037997C2206.7838651975067,558.0027370529544 2353.874625957531,558.0027370529544 2353.874625957531,522.0013875021092" style="fill: none; stroke: #ccc; stroke-width: 0.5;"></path></g><g class="mark-symbol role-mark nodes"><path transform="translate(2022.7597757502979,665.94171436626)" d="M5,0A5,5,0,1,1,-5,0A5,5,0,1,1,5,0" style="fill: #3182bd;"></path><path transform="translate(1702.8021988083112,378.0226163140588)" d="M5,0A5,5,0,1,1,-5,0A5,5,0,1,1,5,0" style="fill: #6baed6;"></path><path transform="translate(3646.7659730795954,306.0098363806548)" d="M5,0A5,5,0,1,1,-5,0A5,5,0,1,1,5,0" style="fill: #9ecae1;"></path><path transform="translate(3646.7999822246766,234.02257238730274)" d="M5,0A5,5,0,1,1,-5,0A5,5,0,1,1,5,0" style="fill: #c6dbef;"></path><path transform="translate(1473.800313349406,378.02256115724)" d="M5,0A5,5,0,1,1,-5,0A5,5,0,1,1,5,0" style="fill: #e6550d;"></path><path transform="translate(2750.8000000000393,90.0188)" d="M5,0A5,5,0,1,1,-5,0A5,5,0,1,1,5,0" style="fill: #fd8d3c;"></path><path transform="translate(1065.8317282652472,162.02644128641597)" d="M5,0A5,5,0,1,1,-5,0A5,5,0,1,1,5,0" style="fill: #fdae6b;"></path><path transform="translate(2526.764192963257,162.0390697797002)" d="M5,0A5,5,0,1,1,-5,0A5,5,0,1,1,5,0" style="fill: #fdd0a2;"></path><path transform="translate(2439.8546717685417,234.03004795390487)" d="M5,0A5,5,0,1,1,-5,0A5,5,0,1,1,5,0" style="fill: #31a354;"></path><path transform="translate(4287.799999999871,234.02256)" d="M5,0A5,5,0,1,1,-5,0A5,5,0,1,1,5,0" style="fill: #74c476;"></path><path transform="translate(2248.7360329688404,162.02636286181541)" d="M5,0A5,5,0,1,1,-5,0A5,5,0,1,1,5,0" style="fill: #a1d99b;"></path><path transform="translate(2911.7999924509536,162.02563420179314)" d="M5,0A5,5,0,1,1,-5,0A5,5,0,1,1,5,0" style="fill: #c7e9c0;"></path><path transform="translate(1907.8046359110253,378.0237160138782)" d="M5,0A5,5,0,1,1,-5,0A5,5,0,1,1,5,0" style="fill: #756bb1;"></path><path transform="translate(898.9414005735584,162.0295353653383)" d="M5,0A5,5,0,1,1,-5,0A5,5,0,1,1,5,0" style="fill: #9e9ac8;"></path><path transform="translate(1643.8001673095187,18.02149210341762)" d="M5,0A5,5,0,1,1,-5,0A5,5,0,1,1,5,0" style="fill: #bcbddc;"></path><path transform="translate(1916.8619017042813,521.9804727673268)" d="M5,0A5,5,0,1,1,-5,0A5,5,0,1,1,5,0" style="fill: #dadaeb;"></path><path transform="translate(2189.829419414905,521.9579669588065)" d="M5,0A5,5,0,1,1,-5,0A5,5,0,1,1,5,0" style="fill: #636363;"></path><path transform="translate(959.89966136398,377.9902441260584)" d="M5,0A5,5,0,1,1,-5,0A5,5,0,1,1,5,0" style="fill: #969696;"></path><path transform="translate(2349.7278664726487,594.0075058565088)" d="M5,0A5,5,0,1,1,-5,0A5,5,0,1,1,5,0" style="fill: #bdbdbd;"></path><path transform="translate(1712.9318574589138,521.9811065857721)" d="M5,0A5,5,0,1,1,-5,0A5,5,0,1,1,5,0" style="fill: #d9d9d9;"></path><path transform="translate(2522.7726925452707,377.98060784194973)" d="M5,0A5,5,0,1,1,-5,0A5,5,0,1,1,5,0" style="fill: #3182bd;"></path><path transform="translate(1186.954092664727,377.9803911401172)" d="M5,0A5,5,0,1,1,-5,0A5,5,0,1,1,5,0" style="fill: #6baed6;"></path><path transform="translate(1709.8634091065182,450.0114137135068)" d="M5,0A5,5,0,1,1,-5,0A5,5,0,1,1,5,0" style="fill: #9ecae1;"></path><path transform="translate(1474.928398614895,450.01352427225066)" d="M5,0A5,5,0,1,1,-5,0A5,5,0,1,1,5,0" style="fill: #c6dbef;"></path><path transform="translate(1920.7440563814323,306.0235785062129)" d="M5,0A5,5,0,1,1,-5,0A5,5,0,1,1,5,0" style="fill: #e6550d;"></path><path transform="translate(852.9534241826698,306.00914565763304)" d="M5,0A5,5,0,1,1,-5,0A5,5,0,1,1,5,0" style="fill: #fd8d3c;"></path><path transform="translate(1213.7688888788682,306.0097315252682)" d="M5,0A5,5,0,1,1,-5,0A5,5,0,1,1,5,0" style="fill: #fdae6b;"></path><path transform="translate(1566.865182035042,306.02362410032083)" d="M5,0A5,5,0,1,1,-5,0A5,5,0,1,1,5,0" style="fill: #fdd0a2;"></path><path transform="translate(503.0736930903705,306.0108258558969)" d="M5,0A5,5,0,1,1,-5,0A5,5,0,1,1,5,0" style="fill: #31a354;"></path><path transform="translate(162.22264111859087,306.01100352625167)" d="M5,0A5,5,0,1,1,-5,0A5,5,0,1,1,5,0" style="fill: #74c476;"></path><path transform="translate(2912.832159649066,449.9788516222928)" d="M5,0A5,5,0,1,1,-5,0A5,5,0,1,1,5,0" style="fill: #a1d99b;"></path><path transform="translate(2277.831866638583,377.97179885710665)" d="M5,0A5,5,0,1,1,-5,0A5,5,0,1,1,5,0" style="fill: #c7e9c0;"></path><path transform="translate(2750.7993447420845,162.00236264749182)" d="M5,0A5,5,0,1,1,-5,0A5,5,0,1,1,5,0" style="fill: #756bb1;"></path><path transform="translate(2746.837741283164,234.03851682573986)" d="M5,0A5,5,0,1,1,-5,0A5,5,0,1,1,5,0" style="fill: #9e9ac8;"></path><path transform="translate(3646.545870921129,377.9848104438128)" d="M5,0A5,5,0,1,1,-5,0A5,5,0,1,1,5,0" style="fill: #bcbddc;"></path><path transform="translate(3020.8146664988503,377.9915804090574)" d="M5,0A5,5,0,1,1,-5,0A5,5,0,1,1,5,0" style="fill: #dadaeb;"></path><path transform="translate(3874.4744744529553,377.98286377595326)" d="M5,0A5,5,0,1,1,-5,0A5,5,0,1,1,5,0" style="fill: #636363;"></path><path transform="translate(2346.705038046707,306.02557352347435)" d="M5,0A5,5,0,1,1,-5,0A5,5,0,1,1,5,0" style="fill: #969696;"></path><path transform="translate(4287.800314210877,306.00925767034977)" d="M5,0A5,5,0,1,1,-5,0A5,5,0,1,1,5,0" style="fill: #bdbdbd;"></path><path transform="translate(2746.7749643605407,306.01001635982226)" d="M5,0A5,5,0,1,1,-5,0A5,5,0,1,1,5,0" style="fill: #d9d9d9;"></path><path transform="translate(2911.81190215223,234.03900575938974)" d="M5,0A5,5,0,1,1,-5,0A5,5,0,1,1,5,0" style="fill: #3182bd;"></path><path transform="translate(4287.339425987058,377.9847533548814)" d="M5,0A5,5,0,1,1,-5,0A5,5,0,1,1,5,0" style="fill: #6baed6;"></path><path transform="translate(4092.4174863264043,377.9935326462091)" d="M5,0A5,5,0,1,1,-5,0A5,5,0,1,1,5,0" style="fill: #9ecae1;"></path><path transform="translate(4486.28062332807,377.98288632617897)" d="M5,0A5,5,0,1,1,-5,0A5,5,0,1,1,5,0" style="fill: #c6dbef;"></path><path transform="translate(3231.7774871695765,306.01783042303515)" d="M5,0A5,5,0,1,1,-5,0A5,5,0,1,1,5,0" style="fill: #e6550d;"></path><path transform="translate(3231.679487184166,377.9854540247315)" d="M5,0A5,5,0,1,1,-5,0A5,5,0,1,1,5,0" style="fill: #fd8d3c;"></path><path transform="translate(2804.84826488603,377.9947548082202)" d="M5,0A5,5,0,1,1,-5,0A5,5,0,1,1,5,0" style="fill: #fdae6b;"></path><path transform="translate(3432.6224397055325,377.9840770610025)" d="M5,0A5,5,0,1,1,-5,0A5,5,0,1,1,5,0" style="fill: #fdd0a2;"></path><path transform="translate(1921.8463196123353,449.98816397555737)" d="M5,0A5,5,0,1,1,-5,0A5,5,0,1,1,5,0" style="fill: #31a354;"></path><path transform="translate(1771.8113456948186,90.00407692186727)" d="M5,0A5,5,0,1,1,-5,0A5,5,0,1,1,5,0" style="fill: #74c476;"></path><path transform="translate(2197.8033108328673,233.99808565128424)" d="M5,0A5,5,0,1,1,-5,0A5,5,0,1,1,5,0" style="fill: #a1d99b;"></path><path transform="translate(2036.6882070018646,162.01145478456942)" d="M5,0A5,5,0,1,1,-5,0A5,5,0,1,1,5,0" style="fill: #c7e9c0;"></path><path transform="translate(1771.7844557126803,162.0139392831142)" d="M5,0A5,5,0,1,1,-5,0A5,5,0,1,1,5,0" style="fill: #756bb1;"></path><path transform="translate(1253.8499304604193,233.99357366766034)" d="M5,0A5,5,0,1,1,-5,0A5,5,0,1,1,5,0" style="fill: #9e9ac8;"></path><path transform="translate(1516.790531212755,90.00403751346047)" d="M5,0A5,5,0,1,1,-5,0A5,5,0,1,1,5,0" style="fill: #bcbddc;"></path><path transform="translate(1976.81649070702,233.99722643486234)" d="M5,0A5,5,0,1,1,-5,0A5,5,0,1,1,5,0" style="fill: #dadaeb;"></path><path transform="translate(1516.7926276814235,162.01395764116626)" d="M5,0A5,5,0,1,1,-5,0A5,5,0,1,1,5,0" style="fill: #636363;"></path><path transform="translate(1271.8815557477906,162.01186495805538)" d="M5,0A5,5,0,1,1,-5,0A5,5,0,1,1,5,0" style="fill: #969696;"></path><path transform="translate(1024.782197501827,233.99643289321926)" d="M5,0A5,5,0,1,1,-5,0A5,5,0,1,1,5,0" style="fill: #bdbdbd;"></path><path transform="translate(2206.7838651975067,594.0040866037997)" d="M5,0A5,5,0,1,1,-5,0A5,5,0,1,1,5,0" style="fill: #d9d9d9;"></path><path transform="translate(2353.874625957531,522.0013875021092)" d="M5,0A5,5,0,1,1,-5,0A5,5,0,1,1,5,0" style="fill: #3182bd;"></path></g><g class="mark-text role-mark labels"><text text-anchor="start" transform="translate(2027.8,661)" style="font-family: sans-serif; font-size: 11px; font-weight: normal; fill: black;">all</text><text text-anchor="start" transform="translate(1707.8,373)" style="font-family: sans-serif; font-size: 11px; font-weight: normal; fill: black;">download_baderlab</text><text text-anchor="start" transform="translate(3651.8,301)" style="font-family: sans-serif; font-size: 11px; font-weight: normal; fill: black;">download_biomart</text><text text-anchor="start" transform="translate(3651.8,229)" style="font-family: sans-serif; font-size: 11px; font-weight: normal; fill: black;">download_biomart_human</text><text text-anchor="start" transform="translate(1478.8,373)" style="font-family: sans-serif; font-size: 11px; font-weight: normal; fill: black;">download_cellphonedb</text><text text-anchor="start" transform="translate(2755.8,85)" style="font-family: sans-serif; font-size: 11px; font-weight: normal; fill: black;">download_dlrp</text><text text-anchor="start" transform="translate(1070.8,157)" style="font-family: sans-serif; font-size: 11px; font-weight: normal; fill: black;">download_ensembl</text><text text-anchor="start" transform="translate(2531.8,157)" style="font-family: sans-serif; font-size: 11px; font-weight: normal; fill: black;">download_ensembl_human_symbol</text><text text-anchor="start" transform="translate(2444.8,229)" style="font-family: sans-serif; font-size: 11px; font-weight: normal; fill: black;">download_fantom5</text><text text-anchor="start" transform="translate(4292.8,229)" style="font-family: sans-serif; font-size: 11px; font-weight: normal; fill: black;">download_homologene</text><text text-anchor="start" transform="translate(2253.8,157)" style="font-family: sans-serif; font-size: 11px; font-weight: normal; fill: black;">download_hprd</text><text text-anchor="start" transform="translate(2916.8,157)" style="font-family: sans-serif; font-size: 11px; font-weight: normal; fill: black;">download_iuphar</text><text text-anchor="start" transform="translate(1912.8,373)" style="font-family: sans-serif; font-size: 11px; font-weight: normal; fill: black;">download_singlecellsignalr</text><text text-anchor="start" transform="translate(903.84,157)" style="font-family: sans-serif; font-size: 11px; font-weight: normal; fill: black;">download_string</text><text text-anchor="start" transform="translate(1648.8,13)" style="font-family: sans-serif; font-size: 11px; font-weight: normal; fill: black;">download_uniprotkb</text><text text-anchor="start" transform="translate(1921.8,517)" style="font-family: sans-serif; font-size: 11px; font-weight: normal; fill: black;">plot_hclust_human</text><text text-anchor="start" transform="translate(2194.8,517)" style="font-family: sans-serif; font-size: 11px; font-weight: normal; fill: black;">plot_known_ratio_human</text><text text-anchor="start" transform="translate(964.84,373)" style="font-family: sans-serif; font-size: 11px; font-weight: normal; fill: black;">plot_string_score</text><text text-anchor="start" transform="translate(2354.8,589)" style="font-family: sans-serif; font-size: 11px; font-weight: normal; fill: black;">plot_summary</text><text text-anchor="start" transform="translate(1717.8,517)" style="font-family: sans-serif; font-size: 11px; font-weight: normal; fill: black;">plot_venndiagram_human</text><text text-anchor="start" transform="translate(2527.8,373)" style="font-family: sans-serif; font-size: 11px; font-weight: normal; fill: black;">plot_venndiagram_uniprotkb_hprd</text><text text-anchor="start" transform="translate(1191.8,373)" style="font-family: sans-serif; font-size: 11px; font-weight: normal; fill: black;">plot_venndiagram_uniprotkb_string</text><text text-anchor="start" transform="translate(1714.8,445)" style="font-family: sans-serif; font-size: 11px; font-weight: normal; fill: black;">preprocess_baderlab</text><text text-anchor="start" transform="translate(1479.8,445)" style="font-family: sans-serif; font-size: 11px; font-weight: normal; fill: black;">preprocess_cellphonedb</text><text text-anchor="start" transform="translate(1925.8,301)" style="font-family: sans-serif; font-size: 11px; font-weight: normal; fill: black;">preprocess_confidence_swissprot_string_high</text><text text-anchor="start" transform="translate(857.84,301)" style="font-family: sans-serif; font-size: 11px; font-weight: normal; fill: black;">preprocess_confidence_swissprot_string_low</text><text text-anchor="start" transform="translate(1218.8,301)" style="font-family: sans-serif; font-size: 11px; font-weight: normal; fill: black;">preprocess_confidence_swissprot_string_mid</text><text text-anchor="start" transform="translate(1571.8,301)" style="font-family: sans-serif; font-size: 11px; font-weight: normal; fill: black;">preprocess_confidence_trembl_string_high</text><text text-anchor="start" transform="translate(507.84,301)" style="font-family: sans-serif; font-size: 11px; font-weight: normal; fill: black;">preprocess_confidence_trembl_string_low</text><text text-anchor="start" transform="translate(166.84,301)" style="font-family: sans-serif; font-size: 11px; font-weight: normal; fill: black;">preprocess_confidence_trembl_string_mid</text><text text-anchor="start" transform="translate(2917.8,445)" style="font-family: sans-serif; font-size: 11px; font-weight: normal; fill: black;">preprocess_csv</text><text text-anchor="start" transform="translate(2282.8,373)" style="font-family: sans-serif; font-size: 11px; font-weight: normal; fill: black;">preprocess_csv_human</text><text text-anchor="start" transform="translate(2755.8,157)" style="font-family: sans-serif; font-size: 11px; font-weight: normal; fill: black;">preprocess_dlrp</text><text text-anchor="start" transform="translate(2751.8,229)" style="font-family: sans-serif; font-size: 11px; font-weight: normal; fill: black;">preprocess_dlrp2</text><text text-anchor="start" transform="translate(3651.8,373)" style="font-family: sans-serif; font-size: 11px; font-weight: normal; fill: black;">preprocess_ensembl_dlrp</text><text text-anchor="start" transform="translate(3025.8,373)" style="font-family: sans-serif; font-size: 11px; font-weight: normal; fill: black;">preprocess_ensembl_hpmr</text><text text-anchor="start" transform="translate(3879.8,373)" style="font-family: sans-serif; font-size: 11px; font-weight: normal; fill: black;">preprocess_ensembl_iuphar</text><text text-anchor="start" transform="translate(2351.8,301)" style="font-family: sans-serif; font-size: 11px; font-weight: normal; fill: black;">preprocess_fantom5</text><text text-anchor="start" transform="translate(4292.8,301)" style="font-family: sans-serif; font-size: 11px; font-weight: normal; fill: black;">preprocess_homologene</text><text text-anchor="start" transform="translate(2751.8,301)" style="font-family: sans-serif; font-size: 11px; font-weight: normal; fill: black;">preprocess_hpmr</text><text text-anchor="start" transform="translate(2916.8,229)" style="font-family: sans-serif; font-size: 11px; font-weight: normal; fill: black;">preprocess_iuphar</text><text text-anchor="start" transform="translate(4292.8,373)" style="font-family: sans-serif; font-size: 11px; font-weight: normal; fill: black;">preprocess_ncbi_dlrp</text><text text-anchor="start" transform="translate(4097.8,373)" style="font-family: sans-serif; font-size: 11px; font-weight: normal; fill: black;">preprocess_ncbi_hpmr</text><text text-anchor="start" transform="translate(4491.8,373)" style="font-family: sans-serif; font-size: 11px; font-weight: normal; fill: black;">preprocess_ncbi_iuphar</text><text text-anchor="start" transform="translate(3236.8,301)" style="font-family: sans-serif; font-size: 11px; font-weight: normal; fill: black;">preprocess_rbbh</text><text text-anchor="start" transform="translate(3236.8,373)" style="font-family: sans-serif; font-size: 11px; font-weight: normal; fill: black;">preprocess_rbbh_dlrp</text><text text-anchor="start" transform="translate(2809.8,373)" style="font-family: sans-serif; font-size: 11px; font-weight: normal; fill: black;">preprocess_rbbh_hpmr</text><text text-anchor="start" transform="translate(3437.8,373)" style="font-family: sans-serif; font-size: 11px; font-weight: normal; fill: black;">preprocess_rbbh_iuphar</text><text text-anchor="start" transform="translate(1926.8,445)" style="font-family: sans-serif; font-size: 11px; font-weight: normal; fill: black;">preprocess_singlecellsignalr</text><text text-anchor="start" transform="translate(1776.8,85)" style="font-family: sans-serif; font-size: 11px; font-weight: normal; fill: black;">preprocess_swissprot</text><text text-anchor="start" transform="translate(2202.8,229)" style="font-family: sans-serif; font-size: 11px; font-weight: normal; fill: black;">preprocess_swissprot_hprd</text><text text-anchor="start" transform="translate(2041.8,157)" style="font-family: sans-serif; font-size: 11px; font-weight: normal; fill: black;">preprocess_swissprot_membrane</text><text text-anchor="start" transform="translate(1776.8,157)" style="font-family: sans-serif; font-size: 11px; font-weight: normal; fill: black;">preprocess_swissprot_secreted</text><text text-anchor="start" transform="translate(1258.8,229)" style="font-family: sans-serif; font-size: 11px; font-weight: normal; fill: black;">preprocess_swissprot_string</text><text text-anchor="start" transform="translate(1521.8,85)" style="font-family: sans-serif; font-size: 11px; font-weight: normal; fill: black;">preprocess_trembl</text><text text-anchor="start" transform="translate(1981.8,229)" style="font-family: sans-serif; font-size: 11px; font-weight: normal; fill: black;">preprocess_trembl_hprd</text><text text-anchor="start" transform="translate(1521.8,157)" style="font-family: sans-serif; font-size: 11px; font-weight: normal; fill: black;">preprocess_trembl_membrane</text><text text-anchor="start" transform="translate(1276.8,157)" style="font-family: sans-serif; font-size: 11px; font-weight: normal; fill: black;">preprocess_trembl_secreted</text><text text-anchor="start" transform="translate(1029.8,229)" style="font-family: sans-serif; font-size: 11px; font-weight: normal; fill: black;">preprocess_trembl_string</text><text text-anchor="start" transform="translate(2211.8,589)" style="font-family: sans-serif; font-size: 11px; font-weight: normal; fill: black;">sample_sheet</text><text text-anchor="start" transform="translate(2358.8,517)" style="font-family: sans-serif; font-size: 11px; font-weight: normal; fill: black;">summary</text></g></g></g></g></g></svg>