<?xml version="1.0" encoding="UTF-8" standalone="no"?>
<!DOCTYPE svg PUBLIC "-//W3C//DTD SVG 1.1//EN"
 "http://www.w3.org/Graphics/SVG/1.1/DTD/svg11.dtd">
<!-- Generated by graphviz version 2.42.3 (20191010.1750)
 -->
<!-- Title: snakemake_dag Pages: 1 -->
<svg width="3194pt" height="121pt"
 viewBox="0.00 0.00 3193.50 121.00" xmlns="http://www.w3.org/2000/svg" xmlns:xlink="http://www.w3.org/1999/xlink">
<g id="graph0" class="graph" transform="scale(1 1) rotate(0) translate(4 117)">
<title>snakemake_dag</title>
<polygon fill="white" stroke="transparent" points="-4,4 -4,-117 3189.5,-117 3189.5,4 -4,4"/>
<!-- 0 -->
<g id="node1" class="node">
<title>0</title>
<path fill="none" stroke="#56d8a9" stroke-width="2" stroke-dasharray="5,2" d="M1559,-36C1559,-36 1529,-36 1529,-36 1523,-36 1517,-30 1517,-24 1517,-24 1517,-12 1517,-12 1517,-6 1523,0 1529,0 1529,0 1559,0 1559,0 1565,0 1571,-6 1571,-12 1571,-12 1571,-24 1571,-24 1571,-30 1565,-36 1559,-36"/>
<text text-anchor="middle" x="1544" y="-15.5" font-family="sans" font-size="10.00">all</text>
</g>
<!-- 1 -->
<g id="node2" class="node">
<title>1</title>
<path fill="none" stroke="#c6d856" stroke-width="2" stroke-dasharray="5,2" d="M46,-110.5C46,-110.5 12,-110.5 12,-110.5 6,-110.5 0,-104.5 0,-98.5 0,-98.5 0,-86.5 0,-86.5 0,-80.5 6,-74.5 12,-74.5 12,-74.5 46,-74.5 46,-74.5 52,-74.5 58,-80.5 58,-86.5 58,-86.5 58,-98.5 58,-98.5 58,-104.5 52,-110.5 46,-110.5"/>
<text text-anchor="middle" x="29" y="-90" font-family="sans" font-size="10.00">fantom5</text>
</g>
<!-- 1&#45;&gt;0 -->
<g id="edge1" class="edge">
<title>1&#45;&gt;0</title>
<path fill="none" stroke="grey" stroke-width="2" d="M58.38,-74.88C61.23,-73.74 64.13,-72.75 67,-72 209.99,-34.73 1291.61,-21.62 1506.83,-19.37"/>
<polygon fill="grey" stroke="grey" stroke-width="2" points="1507.01,-22.87 1516.98,-19.26 1506.94,-15.87 1507.01,-22.87"/>
</g>
<!-- 2 -->
<g id="node3" class="node">
<title>2</title>
<path fill="none" stroke="#d8d356" stroke-width="2" stroke-dasharray="5,2" d="M118,-110.5C118,-110.5 88,-110.5 88,-110.5 82,-110.5 76,-104.5 76,-98.5 76,-98.5 76,-86.5 76,-86.5 76,-80.5 82,-74.5 88,-74.5 88,-74.5 118,-74.5 118,-74.5 124,-74.5 130,-80.5 130,-86.5 130,-86.5 130,-98.5 130,-98.5 130,-104.5 124,-110.5 118,-110.5"/>
<text text-anchor="middle" x="103" y="-90" font-family="sans" font-size="10.00">dlrp</text>
</g>
<!-- 2&#45;&gt;0 -->
<g id="edge2" class="edge">
<title>2&#45;&gt;0</title>
<path fill="none" stroke="grey" stroke-width="2" d="M130.37,-75.05C133.22,-73.84 136.12,-72.79 139,-72 274.16,-35.02 1297.32,-21.74 1506.66,-19.39"/>
<polygon fill="grey" stroke="grey" stroke-width="2" points="1506.87,-22.89 1516.83,-19.28 1506.79,-15.89 1506.87,-22.89"/>
</g>
<!-- 3 -->
<g id="node4" class="node">
<title>3</title>
<path fill="none" stroke="#56d87b" stroke-width="2" stroke-dasharray="5,2" d="M190,-110.5C190,-110.5 160,-110.5 160,-110.5 154,-110.5 148,-104.5 148,-98.5 148,-98.5 148,-86.5 148,-86.5 148,-80.5 154,-74.5 160,-74.5 160,-74.5 190,-74.5 190,-74.5 196,-74.5 202,-80.5 202,-86.5 202,-86.5 202,-98.5 202,-98.5 202,-104.5 196,-110.5 190,-110.5"/>
<text text-anchor="middle" x="175" y="-90" font-family="sans" font-size="10.00">iuphar</text>
</g>
<!-- 3&#45;&gt;0 -->
<g id="edge3" class="edge">
<title>3&#45;&gt;0</title>
<path fill="none" stroke="grey" stroke-width="2" d="M202.38,-75.06C205.22,-73.85 208.12,-72.79 211,-72 338.81,-36.89 1303.81,-22.19 1506.66,-19.48"/>
<polygon fill="grey" stroke="grey" stroke-width="2" points="1506.85,-22.97 1516.8,-19.34 1506.76,-15.97 1506.85,-22.97"/>
</g>
<!-- 4 -->
<g id="node5" class="node">
<title>4</title>
<path fill="none" stroke="#56d892" stroke-width="2" stroke-dasharray="5,2" d="M262,-110.5C262,-110.5 232,-110.5 232,-110.5 226,-110.5 220,-104.5 220,-98.5 220,-98.5 220,-86.5 220,-86.5 220,-80.5 226,-74.5 232,-74.5 232,-74.5 262,-74.5 262,-74.5 268,-74.5 274,-80.5 274,-86.5 274,-86.5 274,-98.5 274,-98.5 274,-104.5 268,-110.5 262,-110.5"/>
<text text-anchor="middle" x="247" y="-90" font-family="sans" font-size="10.00">hprd</text>
</g>
<!-- 4&#45;&gt;0 -->
<g id="edge4" class="edge">
<title>4&#45;&gt;0</title>
<path fill="none" stroke="grey" stroke-width="2" d="M274.38,-75.07C277.22,-73.85 280.12,-72.79 283,-72 403.49,-38.75 1310.98,-22.67 1506.82,-19.56"/>
<polygon fill="grey" stroke="grey" stroke-width="2" points="1506.96,-23.06 1516.9,-19.41 1506.85,-16.06 1506.96,-23.06"/>
</g>
<!-- 5 -->
<g id="node6" class="node">
<title>5</title>
<path fill="none" stroke="#56d8c9" stroke-width="2" stroke-dasharray="5,2" d="M334,-110.5C334,-110.5 304,-110.5 304,-110.5 298,-110.5 292,-104.5 292,-98.5 292,-98.5 292,-86.5 292,-86.5 292,-80.5 298,-74.5 304,-74.5 304,-74.5 334,-74.5 334,-74.5 340,-74.5 346,-80.5 346,-86.5 346,-86.5 346,-98.5 346,-98.5 346,-104.5 340,-110.5 334,-110.5"/>
<text text-anchor="middle" x="319" y="-90" font-family="sans" font-size="10.00">hgnc</text>
</g>
<!-- 5&#45;&gt;0 -->
<g id="edge5" class="edge">
<title>5&#45;&gt;0</title>
<path fill="none" stroke="grey" stroke-width="2" d="M346.38,-75.07C349.22,-73.86 352.12,-72.8 355,-72 468.1,-40.64 1317.08,-23.2 1506.57,-19.67"/>
<polygon fill="grey" stroke="grey" stroke-width="2" points="1506.92,-23.16 1516.85,-19.48 1506.79,-16.17 1506.92,-23.16"/>
</g>
<!-- 6 -->
<g id="node7" class="node">
<title>6</title>
<path fill="none" stroke="#97d856" stroke-width="2" stroke-dasharray="5,2" d="M456,-113C456,-113 376,-113 376,-113 370,-113 364,-107 364,-101 364,-101 364,-84 364,-84 364,-78 370,-72 376,-72 376,-72 456,-72 456,-72 462,-72 468,-78 468,-84 468,-84 468,-101 468,-101 468,-107 462,-113 456,-113"/>
<text text-anchor="middle" x="416" y="-101" font-family="sans" font-size="10.00">string</text>
<text text-anchor="middle" x="416" y="-90" font-family="sans" font-size="10.00">taxid_string: 9606</text>
<text text-anchor="middle" x="416" y="-79" font-family="sans" font-size="10.00">v: v11.0</text>
</g>
<!-- 6&#45;&gt;0 -->
<g id="edge6" class="edge">
<title>6&#45;&gt;0</title>
<path fill="none" stroke="grey" stroke-width="2" d="M468.02,-73.89C471.04,-73.18 474.05,-72.54 477,-72 681.02,-34.98 1342.6,-22.2 1506.84,-19.55"/>
<polygon fill="grey" stroke="grey" stroke-width="2" points="1506.98,-23.05 1516.93,-19.39 1506.87,-16.05 1506.98,-23.05"/>
</g>
<!-- 7 -->
<g id="node8" class="node">
<title>7</title>
<path fill="none" stroke="#97d856" stroke-width="2" stroke-dasharray="5,2" d="M584,-113C584,-113 498,-113 498,-113 492,-113 486,-107 486,-101 486,-101 486,-84 486,-84 486,-78 492,-72 498,-72 498,-72 584,-72 584,-72 590,-72 596,-78 596,-84 596,-84 596,-101 596,-101 596,-107 590,-113 584,-113"/>
<text text-anchor="middle" x="541" y="-101" font-family="sans" font-size="10.00">string</text>
<text text-anchor="middle" x="541" y="-90" font-family="sans" font-size="10.00">taxid_string: 10090</text>
<text text-anchor="middle" x="541" y="-79" font-family="sans" font-size="10.00">v: v11.0</text>
</g>
<!-- 7&#45;&gt;0 -->
<g id="edge7" class="edge">
<title>7&#45;&gt;0</title>
<path fill="none" stroke="grey" stroke-width="2" d="M596.3,-73.76C599.23,-73.1 602.14,-72.51 605,-72 782.79,-40.37 1354.36,-23.83 1506.5,-19.92"/>
<polygon fill="grey" stroke="grey" stroke-width="2" points="1506.81,-23.41 1516.72,-19.66 1506.63,-16.41 1506.81,-23.41"/>
</g>
<!-- 8 -->
<g id="node9" class="node">
<title>8</title>
<path fill="none" stroke="#97d856" stroke-width="2" stroke-dasharray="5,2" d="M706,-113C706,-113 626,-113 626,-113 620,-113 614,-107 614,-101 614,-101 614,-84 614,-84 614,-78 620,-72 626,-72 626,-72 706,-72 706,-72 712,-72 718,-78 718,-84 718,-84 718,-101 718,-101 718,-107 712,-113 706,-113"/>
<text text-anchor="middle" x="666" y="-101" font-family="sans" font-size="10.00">string</text>
<text text-anchor="middle" x="666" y="-90" font-family="sans" font-size="10.00">taxid_string: 3702</text>
<text text-anchor="middle" x="666" y="-79" font-family="sans" font-size="10.00">v: v11.0</text>
</g>
<!-- 8&#45;&gt;0 -->
<g id="edge8" class="edge">
<title>8&#45;&gt;0</title>
<path fill="none" stroke="grey" stroke-width="2" d="M718.03,-73.95C721.04,-73.22 724.05,-72.56 727,-72 879.62,-43.11 1367.13,-24.92 1506.47,-20.22"/>
<polygon fill="grey" stroke="grey" stroke-width="2" points="1506.76,-23.71 1516.64,-19.88 1506.53,-16.71 1506.76,-23.71"/>
</g>
<!-- 9 -->
<g id="node10" class="node">
<title>9</title>
<path fill="none" stroke="#97d856" stroke-width="2" stroke-dasharray="5,2" d="M834,-113C834,-113 748,-113 748,-113 742,-113 736,-107 736,-101 736,-101 736,-84 736,-84 736,-78 742,-72 748,-72 748,-72 834,-72 834,-72 840,-72 846,-78 846,-84 846,-84 846,-101 846,-101 846,-107 840,-113 834,-113"/>
<text text-anchor="middle" x="791" y="-101" font-family="sans" font-size="10.00">string</text>
<text text-anchor="middle" x="791" y="-90" font-family="sans" font-size="10.00">taxid_string: 10116</text>
<text text-anchor="middle" x="791" y="-79" font-family="sans" font-size="10.00">v: v11.0</text>
</g>
<!-- 9&#45;&gt;0 -->
<g id="edge9" class="edge">
<title>9&#45;&gt;0</title>
<path fill="none" stroke="grey" stroke-width="2" d="M846.32,-73.84C849.24,-73.16 852.15,-72.54 855,-72 1100.63,-25.71 1402.81,-19.66 1506.8,-19.01"/>
<polygon fill="grey" stroke="grey" stroke-width="2" points="1506.82,-22.51 1516.8,-18.96 1506.78,-15.51 1506.82,-22.51"/>
</g>
<!-- 10 -->
<g id="node11" class="node">
<title>10</title>
<path fill="none" stroke="#97d856" stroke-width="2" stroke-dasharray="5,2" d="M956,-113C956,-113 876,-113 876,-113 870,-113 864,-107 864,-101 864,-101 864,-84 864,-84 864,-78 870,-72 876,-72 876,-72 956,-72 956,-72 962,-72 968,-78 968,-84 968,-84 968,-101 968,-101 968,-107 962,-113 956,-113"/>
<text text-anchor="middle" x="916" y="-101" font-family="sans" font-size="10.00">string</text>
<text text-anchor="middle" x="916" y="-90" font-family="sans" font-size="10.00">taxid_string: 9913</text>
<text text-anchor="middle" x="916" y="-79" font-family="sans" font-size="10.00">v: v11.0</text>
</g>
<!-- 10&#45;&gt;0 -->
<g id="edge10" class="edge">
<title>10&#45;&gt;0</title>
<path fill="none" stroke="grey" stroke-width="2" d="M968.05,-74.05C971.06,-73.29 974.06,-72.6 977,-72 1173.84,-31.83 1415.44,-22.04 1506.72,-19.71"/>
<polygon fill="grey" stroke="grey" stroke-width="2" points="1506.93,-23.2 1516.84,-19.46 1506.76,-16.21 1506.93,-23.2"/>
</g>
<!-- 11 -->
<g id="node12" class="node">
<title>11</title>
<path fill="none" stroke="#97d856" stroke-width="2" stroke-dasharray="5,2" d="M1090,-113C1090,-113 998,-113 998,-113 992,-113 986,-107 986,-101 986,-101 986,-84 986,-84 986,-78 992,-72 998,-72 998,-72 1090,-72 1090,-72 1096,-72 1102,-78 1102,-84 1102,-84 1102,-101 1102,-101 1102,-107 1096,-113 1090,-113"/>
<text text-anchor="middle" x="1044" y="-101" font-family="sans" font-size="10.00">string</text>
<text text-anchor="middle" x="1044" y="-90" font-family="sans" font-size="10.00">taxid_string: 224308</text>
<text text-anchor="middle" x="1044" y="-79" font-family="sans" font-size="10.00">v: v11.0</text>
</g>
<!-- 11&#45;&gt;0 -->
<g id="edge11" class="edge">
<title>11&#45;&gt;0</title>
<path fill="none" stroke="grey" stroke-width="2" d="M1102.33,-73.92C1105.25,-73.23 1108.15,-72.58 1111,-72 1255.6,-42.31 1431.02,-27.11 1506.5,-21.54"/>
<polygon fill="grey" stroke="grey" stroke-width="2" points="1507.18,-25 1516.9,-20.79 1506.67,-18.02 1507.18,-25"/>
</g>
<!-- 12 -->
<g id="node13" class="node">
<title>12</title>
<path fill="none" stroke="#97d856" stroke-width="2" stroke-dasharray="5,2" d="M1218,-113C1218,-113 1132,-113 1132,-113 1126,-113 1120,-107 1120,-101 1120,-101 1120,-84 1120,-84 1120,-78 1126,-72 1132,-72 1132,-72 1218,-72 1218,-72 1224,-72 1230,-78 1230,-84 1230,-84 1230,-101 1230,-101 1230,-107 1224,-113 1218,-113"/>
<text text-anchor="middle" x="1175" y="-101" font-family="sans" font-size="10.00">string</text>
<text text-anchor="middle" x="1175" y="-90" font-family="sans" font-size="10.00">taxid_string: 44689</text>
<text text-anchor="middle" x="1175" y="-79" font-family="sans" font-size="10.00">v: v11.0</text>
</g>
<!-- 12&#45;&gt;0 -->
<g id="edge12" class="edge">
<title>12&#45;&gt;0</title>
<path fill="none" stroke="grey" stroke-width="2" d="M1230.04,-74.26C1233.06,-73.46 1236.06,-72.7 1239,-72 1334.48,-49.25 1448.96,-31.99 1506.73,-23.96"/>
<polygon fill="grey" stroke="grey" stroke-width="2" points="1507.41,-27.4 1516.84,-22.57 1506.46,-20.46 1507.41,-27.4"/>
</g>
<!-- 13 -->
<g id="node14" class="node">
<title>13</title>
<path fill="none" stroke="#97d856" stroke-width="2" stroke-dasharray="5,2" d="M1340,-113C1340,-113 1260,-113 1260,-113 1254,-113 1248,-107 1248,-101 1248,-101 1248,-84 1248,-84 1248,-78 1254,-72 1260,-72 1260,-72 1340,-72 1340,-72 1346,-72 1352,-78 1352,-84 1352,-84 1352,-101 1352,-101 1352,-107 1346,-113 1340,-113"/>
<text text-anchor="middle" x="1300" y="-101" font-family="sans" font-size="10.00">string</text>
<text text-anchor="middle" x="1300" y="-90" font-family="sans" font-size="10.00">taxid_string: 6239</text>
<text text-anchor="middle" x="1300" y="-79" font-family="sans" font-size="10.00">v: v11.0</text>
</g>
<!-- 13&#45;&gt;0 -->
<g id="edge13" class="edge">
<title>13&#45;&gt;0</title>
<path fill="none" stroke="grey" stroke-width="2" d="M1352.21,-74.7C1355.18,-73.78 1358.13,-72.87 1361,-72 1411.47,-56.63 1470.09,-39.84 1507.11,-29.36"/>
<polygon fill="grey" stroke="grey" stroke-width="2" points="1508.28,-32.67 1516.96,-26.58 1506.38,-25.93 1508.28,-32.67"/>
</g>
<!-- 14 -->
<g id="node15" class="node">
<title>14</title>
<path fill="none" stroke="#97d856" stroke-width="2" stroke-dasharray="5,2" d="M1462,-113C1462,-113 1382,-113 1382,-113 1376,-113 1370,-107 1370,-101 1370,-101 1370,-84 1370,-84 1370,-78 1376,-72 1382,-72 1382,-72 1462,-72 1462,-72 1468,-72 1474,-78 1474,-84 1474,-84 1474,-101 1474,-101 1474,-107 1468,-113 1462,-113"/>
<text text-anchor="middle" x="1422" y="-101" font-family="sans" font-size="10.00">string</text>
<text text-anchor="middle" x="1422" y="-90" font-family="sans" font-size="10.00">taxid_string: 7227</text>
<text text-anchor="middle" x="1422" y="-79" font-family="sans" font-size="10.00">v: v11.0</text>
</g>
<!-- 14&#45;&gt;0 -->
<g id="edge14" class="edge">
<title>14&#45;&gt;0</title>
<path fill="none" stroke="grey" stroke-width="2" d="M1455.01,-71.88C1471.33,-62.19 1491.05,-50.46 1507.78,-40.52"/>
<polygon fill="grey" stroke="grey" stroke-width="2" points="1509.92,-43.33 1516.73,-35.21 1506.34,-37.31 1509.92,-43.33"/>
</g>
<!-- 15 -->
<g id="node16" class="node">
<title>15</title>
<path fill="none" stroke="#97d856" stroke-width="2" stroke-dasharray="5,2" d="M1584,-113C1584,-113 1504,-113 1504,-113 1498,-113 1492,-107 1492,-101 1492,-101 1492,-84 1492,-84 1492,-78 1498,-72 1504,-72 1504,-72 1584,-72 1584,-72 1590,-72 1596,-78 1596,-84 1596,-84 1596,-101 1596,-101 1596,-107 1590,-113 1584,-113"/>
<text text-anchor="middle" x="1544" y="-101" font-family="sans" font-size="10.00">string</text>
<text text-anchor="middle" x="1544" y="-90" font-family="sans" font-size="10.00">taxid_string: 7955</text>
<text text-anchor="middle" x="1544" y="-79" font-family="sans" font-size="10.00">v: v11.0</text>
</g>
<!-- 15&#45;&gt;0 -->
<g id="edge15" class="edge">
<title>15&#45;&gt;0</title>
<path fill="none" stroke="grey" stroke-width="2" d="M1544,-71.69C1544,-63.91 1544,-54.84 1544,-46.45"/>
<polygon fill="grey" stroke="grey" stroke-width="2" points="1547.5,-46.32 1544,-36.32 1540.5,-46.32 1547.5,-46.32"/>
</g>
<!-- 16 -->
<g id="node17" class="node">
<title>16</title>
<path fill="none" stroke="#97d856" stroke-width="2" stroke-dasharray="5,2" d="M1706,-113C1706,-113 1626,-113 1626,-113 1620,-113 1614,-107 1614,-101 1614,-101 1614,-84 1614,-84 1614,-78 1620,-72 1626,-72 1626,-72 1706,-72 1706,-72 1712,-72 1718,-78 1718,-84 1718,-84 1718,-101 1718,-101 1718,-107 1712,-113 1706,-113"/>
<text text-anchor="middle" x="1666" y="-101" font-family="sans" font-size="10.00">string</text>
<text text-anchor="middle" x="1666" y="-90" font-family="sans" font-size="10.00">taxid_string: 9031</text>
<text text-anchor="middle" x="1666" y="-79" font-family="sans" font-size="10.00">v: v11.0</text>
</g>
<!-- 16&#45;&gt;0 -->
<g id="edge16" class="edge">
<title>16&#45;&gt;0</title>
<path fill="none" stroke="grey" stroke-width="2" d="M1632.99,-71.88C1616.67,-62.19 1596.95,-50.46 1580.22,-40.52"/>
<polygon fill="grey" stroke="grey" stroke-width="2" points="1581.66,-37.31 1571.27,-35.21 1578.08,-43.33 1581.66,-37.31"/>
</g>
<!-- 17 -->
<g id="node18" class="node">
<title>17</title>
<path fill="none" stroke="#97d856" stroke-width="2" stroke-dasharray="5,2" d="M1828,-113C1828,-113 1748,-113 1748,-113 1742,-113 1736,-107 1736,-101 1736,-101 1736,-84 1736,-84 1736,-78 1742,-72 1748,-72 1748,-72 1828,-72 1828,-72 1834,-72 1840,-78 1840,-84 1840,-84 1840,-101 1840,-101 1840,-107 1834,-113 1828,-113"/>
<text text-anchor="middle" x="1788" y="-101" font-family="sans" font-size="10.00">string</text>
<text text-anchor="middle" x="1788" y="-90" font-family="sans" font-size="10.00">taxid_string: 9601</text>
<text text-anchor="middle" x="1788" y="-79" font-family="sans" font-size="10.00">v: v11.0</text>
</g>
<!-- 17&#45;&gt;0 -->
<g id="edge17" class="edge">
<title>17&#45;&gt;0</title>
<path fill="none" stroke="grey" stroke-width="2" d="M1735.79,-74.7C1732.82,-73.78 1729.87,-72.87 1727,-72 1676.53,-56.63 1617.91,-39.84 1580.89,-29.36"/>
<polygon fill="grey" stroke="grey" stroke-width="2" points="1581.62,-25.93 1571.04,-26.58 1579.72,-32.67 1581.62,-25.93"/>
</g>
<!-- 18 -->
<g id="node19" class="node">
<title>18</title>
<path fill="none" stroke="#97d856" stroke-width="2" stroke-dasharray="5,2" d="M1956,-113C1956,-113 1870,-113 1870,-113 1864,-113 1858,-107 1858,-101 1858,-101 1858,-84 1858,-84 1858,-78 1864,-72 1870,-72 1870,-72 1956,-72 1956,-72 1962,-72 1968,-78 1968,-84 1968,-84 1968,-101 1968,-101 1968,-107 1962,-113 1956,-113"/>
<text text-anchor="middle" x="1913" y="-101" font-family="sans" font-size="10.00">string</text>
<text text-anchor="middle" x="1913" y="-90" font-family="sans" font-size="10.00">taxid_string: 83332</text>
<text text-anchor="middle" x="1913" y="-79" font-family="sans" font-size="10.00">v: v11.0</text>
</g>
<!-- 18&#45;&gt;0 -->
<g id="edge18" class="edge">
<title>18&#45;&gt;0</title>
<path fill="none" stroke="grey" stroke-width="2" d="M1857.96,-74.26C1854.94,-73.46 1851.94,-72.7 1849,-72 1753.52,-49.25 1639.04,-31.99 1581.27,-23.96"/>
<polygon fill="grey" stroke="grey" stroke-width="2" points="1581.54,-20.46 1571.16,-22.57 1580.59,-27.4 1581.54,-20.46"/>
</g>
<!-- 19 -->
<g id="node20" class="node">
<title>19</title>
<path fill="none" stroke="#97d856" stroke-width="2" stroke-dasharray="5,2" d="M2090,-113C2090,-113 1998,-113 1998,-113 1992,-113 1986,-107 1986,-101 1986,-101 1986,-84 1986,-84 1986,-78 1992,-72 1998,-72 1998,-72 2090,-72 2090,-72 2096,-72 2102,-78 2102,-84 2102,-84 2102,-101 2102,-101 2102,-107 2096,-113 2090,-113"/>
<text text-anchor="middle" x="2044" y="-101" font-family="sans" font-size="10.00">string</text>
<text text-anchor="middle" x="2044" y="-90" font-family="sans" font-size="10.00">taxid_string: 243232</text>
<text text-anchor="middle" x="2044" y="-79" font-family="sans" font-size="10.00">v: v11.0</text>
</g>
<!-- 19&#45;&gt;0 -->
<g id="edge19" class="edge">
<title>19&#45;&gt;0</title>
<path fill="none" stroke="grey" stroke-width="2" d="M1985.67,-73.92C1982.75,-73.23 1979.85,-72.58 1977,-72 1832.4,-42.31 1656.98,-27.11 1581.5,-21.54"/>
<polygon fill="grey" stroke="grey" stroke-width="2" points="1581.33,-18.02 1571.1,-20.79 1580.82,-25 1581.33,-18.02"/>
</g>
<!-- 20 -->
<g id="node21" class="node">
<title>20</title>
<path fill="none" stroke="#97d856" stroke-width="2" stroke-dasharray="5,2" d="M2218,-113C2218,-113 2132,-113 2132,-113 2126,-113 2120,-107 2120,-101 2120,-101 2120,-84 2120,-84 2120,-78 2126,-72 2132,-72 2132,-72 2218,-72 2218,-72 2224,-72 2230,-78 2230,-84 2230,-84 2230,-101 2230,-101 2230,-107 2224,-113 2218,-113"/>
<text text-anchor="middle" x="2175" y="-101" font-family="sans" font-size="10.00">string</text>
<text text-anchor="middle" x="2175" y="-90" font-family="sans" font-size="10.00">taxid_string: 71421</text>
<text text-anchor="middle" x="2175" y="-79" font-family="sans" font-size="10.00">v: v11.0</text>
</g>
<!-- 20&#45;&gt;0 -->
<g id="edge20" class="edge">
<title>20&#45;&gt;0</title>
<path fill="none" stroke="grey" stroke-width="2" d="M2119.67,-73.89C2116.75,-73.2 2113.85,-72.56 2111,-72 1913.89,-33.18 1672.45,-22.59 1581.25,-19.88"/>
<polygon fill="grey" stroke="grey" stroke-width="2" points="1581.23,-16.38 1571.13,-19.59 1581.03,-23.37 1581.23,-16.38"/>
</g>
<!-- 21 -->
<g id="node22" class="node">
<title>21</title>
<path fill="none" stroke="#97d856" stroke-width="2" stroke-dasharray="5,2" d="M2340,-113C2340,-113 2260,-113 2260,-113 2254,-113 2248,-107 2248,-101 2248,-101 2248,-84 2248,-84 2248,-78 2254,-72 2260,-72 2260,-72 2340,-72 2340,-72 2346,-72 2352,-78 2352,-84 2352,-84 2352,-101 2352,-101 2352,-107 2346,-113 2340,-113"/>
<text text-anchor="middle" x="2300" y="-101" font-family="sans" font-size="10.00">string</text>
<text text-anchor="middle" x="2300" y="-90" font-family="sans" font-size="10.00">taxid_string: 8364</text>
<text text-anchor="middle" x="2300" y="-79" font-family="sans" font-size="10.00">v: v11.0</text>
</g>
<!-- 21&#45;&gt;0 -->
<g id="edge21" class="edge">
<title>21&#45;&gt;0</title>
<path fill="none" stroke="grey" stroke-width="2" d="M2247.97,-73.99C2244.95,-73.25 2241.95,-72.58 2239,-72 1991.26,-23.65 1685.83,-18.9 1581.2,-18.8"/>
<polygon fill="grey" stroke="grey" stroke-width="2" points="1581.13,-15.3 1571.14,-18.81 1581.14,-22.3 1581.13,-15.3"/>
</g>
<!-- 22 -->
<g id="node23" class="node">
<title>22</title>
<path fill="none" stroke="#97d856" stroke-width="2" stroke-dasharray="5,2" d="M2474,-113C2474,-113 2382,-113 2382,-113 2376,-113 2370,-107 2370,-101 2370,-101 2370,-84 2370,-84 2370,-78 2376,-72 2382,-72 2382,-72 2474,-72 2474,-72 2480,-72 2486,-78 2486,-84 2486,-84 2486,-101 2486,-101 2486,-107 2480,-113 2474,-113"/>
<text text-anchor="middle" x="2428" y="-101" font-family="sans" font-size="10.00">string</text>
<text text-anchor="middle" x="2428" y="-90" font-family="sans" font-size="10.00">taxid_string: 199310</text>
<text text-anchor="middle" x="2428" y="-79" font-family="sans" font-size="10.00">v: v11.0</text>
</g>
<!-- 22&#45;&gt;0 -->
<g id="edge22" class="edge">
<title>22&#45;&gt;0</title>
<path fill="none" stroke="grey" stroke-width="2" d="M2369.71,-73.72C2366.78,-73.08 2363.86,-72.5 2361,-72 2063.7,-19.74 1697.41,-17.71 1581.2,-18.54"/>
<polygon fill="grey" stroke="grey" stroke-width="2" points="1581.02,-15.04 1571.05,-18.62 1581.08,-22.04 1581.02,-15.04"/>
</g>
<!-- 23 -->
<g id="node24" class="node">
<title>23</title>
<path fill="none" stroke="#97d856" stroke-width="2" stroke-dasharray="5,2" d="M2596,-113C2596,-113 2516,-113 2516,-113 2510,-113 2504,-107 2504,-101 2504,-101 2504,-84 2504,-84 2504,-78 2510,-72 2516,-72 2516,-72 2596,-72 2596,-72 2602,-72 2608,-78 2608,-84 2608,-84 2608,-101 2608,-101 2608,-107 2602,-113 2596,-113"/>
<text text-anchor="middle" x="2556" y="-101" font-family="sans" font-size="10.00">string</text>
<text text-anchor="middle" x="2556" y="-90" font-family="sans" font-size="10.00">taxid_string: 9823</text>
<text text-anchor="middle" x="2556" y="-79" font-family="sans" font-size="10.00">v: v11.0</text>
</g>
<!-- 23&#45;&gt;0 -->
<g id="edge23" class="edge">
<title>23&#45;&gt;0</title>
<path fill="none" stroke="grey" stroke-width="2" d="M2503.98,-73.91C2500.96,-73.19 2497.95,-72.54 2495,-72 2314.96,-38.77 1734.85,-23.37 1581.48,-19.82"/>
<polygon fill="grey" stroke="grey" stroke-width="2" points="1581.27,-16.31 1571.19,-19.58 1581.11,-23.31 1581.27,-16.31"/>
</g>
<!-- 24 -->
<g id="node25" class="node">
<title>24</title>
<path fill="none" stroke="#97d856" stroke-width="2" stroke-dasharray="5,2" d="M2730,-113C2730,-113 2638,-113 2638,-113 2632,-113 2626,-107 2626,-101 2626,-101 2626,-84 2626,-84 2626,-78 2632,-72 2638,-72 2638,-72 2730,-72 2730,-72 2736,-72 2742,-78 2742,-84 2742,-84 2742,-101 2742,-101 2742,-107 2736,-113 2730,-113"/>
<text text-anchor="middle" x="2684" y="-101" font-family="sans" font-size="10.00">string</text>
<text text-anchor="middle" x="2684" y="-90" font-family="sans" font-size="10.00">taxid_string: 224325</text>
<text text-anchor="middle" x="2684" y="-79" font-family="sans" font-size="10.00">v: v11.0</text>
</g>
<!-- 24&#45;&gt;0 -->
<g id="edge24" class="edge">
<title>24&#45;&gt;0</title>
<path fill="none" stroke="grey" stroke-width="2" d="M2625.72,-73.67C2622.79,-73.04 2619.87,-72.48 2617,-72 2411.36,-37.49 1746.42,-22.83 1581.35,-19.67"/>
<polygon fill="grey" stroke="grey" stroke-width="2" points="1581.27,-16.17 1571.21,-19.48 1581.14,-23.17 1581.27,-16.17"/>
</g>
<!-- 25 -->
<g id="node26" class="node">
<title>25</title>
<path fill="none" stroke="#d8a456" stroke-width="2" stroke-dasharray="5,2" d="M2811.5,-110.5C2811.5,-110.5 2772.5,-110.5 2772.5,-110.5 2766.5,-110.5 2760.5,-104.5 2760.5,-98.5 2760.5,-98.5 2760.5,-86.5 2760.5,-86.5 2760.5,-80.5 2766.5,-74.5 2772.5,-74.5 2772.5,-74.5 2811.5,-74.5 2811.5,-74.5 2817.5,-74.5 2823.5,-80.5 2823.5,-86.5 2823.5,-86.5 2823.5,-98.5 2823.5,-98.5 2823.5,-104.5 2817.5,-110.5 2811.5,-110.5"/>
<text text-anchor="middle" x="2792" y="-90" font-family="sans" font-size="10.00">uniprotkb</text>
</g>
<!-- 25&#45;&gt;0 -->
<g id="edge25" class="edge">
<title>25&#45;&gt;0</title>
<path fill="none" stroke="grey" stroke-width="2" d="M2760.22,-74.91C2757.16,-73.76 2754.06,-72.76 2751,-72 2521.36,-14.85 1758.84,-17.27 1581.21,-18.65"/>
<polygon fill="grey" stroke="grey" stroke-width="2" points="1581.04,-15.15 1571.07,-18.73 1581.09,-22.15 1581.04,-15.15"/>
</g>
<!-- 26 -->
<g id="node27" class="node">
<title>26</title>
<path fill="none" stroke="#56d863" stroke-width="2" stroke-dasharray="5,2" d="M2924.5,-110.5C2924.5,-110.5 2853.5,-110.5 2853.5,-110.5 2847.5,-110.5 2841.5,-104.5 2841.5,-98.5 2841.5,-98.5 2841.5,-86.5 2841.5,-86.5 2841.5,-80.5 2847.5,-74.5 2853.5,-74.5 2853.5,-74.5 2924.5,-74.5 2924.5,-74.5 2930.5,-74.5 2936.5,-80.5 2936.5,-86.5 2936.5,-86.5 2936.5,-98.5 2936.5,-98.5 2936.5,-104.5 2930.5,-110.5 2924.5,-110.5"/>
<text text-anchor="middle" x="2889" y="-90" font-family="sans" font-size="10.00">gene2accession</text>
</g>
<!-- 26&#45;&gt;0 -->
<g id="edge26" class="edge">
<title>26&#45;&gt;0</title>
<path fill="none" stroke="grey" stroke-width="2" d="M2843.46,-74.42C2839.95,-73.48 2836.44,-72.65 2833,-72 2583.71,-24.55 1765.8,-19.58 1581.23,-19.06"/>
<polygon fill="grey" stroke="grey" stroke-width="2" points="1581.22,-15.56 1571.21,-19.03 1581.2,-22.56 1581.22,-15.56"/>
</g>
<!-- 27 -->
<g id="node28" class="node">
<title>27</title>
<path fill="none" stroke="#568ad8" stroke-width="2" stroke-dasharray="5,2" d="M3001.5,-110.5C3001.5,-110.5 2966.5,-110.5 2966.5,-110.5 2960.5,-110.5 2954.5,-104.5 2954.5,-98.5 2954.5,-98.5 2954.5,-86.5 2954.5,-86.5 2954.5,-80.5 2960.5,-74.5 2966.5,-74.5 2966.5,-74.5 3001.5,-74.5 3001.5,-74.5 3007.5,-74.5 3013.5,-80.5 3013.5,-86.5 3013.5,-86.5 3013.5,-98.5 3013.5,-98.5 3013.5,-104.5 3007.5,-110.5 3001.5,-110.5"/>
<text text-anchor="middle" x="2984" y="-90" font-family="sans" font-size="10.00">ensembl</text>
</g>
<!-- 27&#45;&gt;0 -->
<g id="edge27" class="edge">
<title>27&#45;&gt;0</title>
<path fill="none" stroke="grey" stroke-width="2" d="M2954.19,-74.71C2951.48,-73.64 2948.73,-72.71 2946,-72 2810.72,-36.6 1790.07,-22.06 1581.25,-19.44"/>
<polygon fill="grey" stroke="grey" stroke-width="2" points="1581.15,-15.94 1571.1,-19.32 1581.06,-22.94 1581.15,-15.94"/>
</g>
<!-- 28 -->
<g id="node29" class="node">
<title>28</title>
<path fill="none" stroke="#afd856" stroke-width="2" stroke-dasharray="5,2" d="M3096,-110.5C3096,-110.5 3044,-110.5 3044,-110.5 3038,-110.5 3032,-104.5 3032,-98.5 3032,-98.5 3032,-86.5 3032,-86.5 3032,-80.5 3038,-74.5 3044,-74.5 3044,-74.5 3096,-74.5 3096,-74.5 3102,-74.5 3108,-80.5 3108,-86.5 3108,-86.5 3108,-98.5 3108,-98.5 3108,-104.5 3102,-110.5 3096,-110.5"/>
<text text-anchor="middle" x="3070" y="-90" font-family="sans" font-size="10.00">cellphonedb</text>
</g>
<!-- 28&#45;&gt;0 -->
<g id="edge28" class="edge">
<title>28&#45;&gt;0</title>
<path fill="none" stroke="grey" stroke-width="2" d="M3032.15,-74.47C3029.09,-73.5 3026.02,-72.66 3023,-72 2878.42,-40.5 1796.46,-22.77 1581.18,-19.54"/>
<polygon fill="grey" stroke="grey" stroke-width="2" points="1581.08,-16.04 1571.03,-19.39 1580.98,-23.04 1581.08,-16.04"/>
</g>
<!-- 29 -->
<g id="node30" class="node">
<title>29</title>
<path fill="none" stroke="#d88556" stroke-width="2" stroke-dasharray="5,2" d="M3173.5,-110.5C3173.5,-110.5 3138.5,-110.5 3138.5,-110.5 3132.5,-110.5 3126.5,-104.5 3126.5,-98.5 3126.5,-98.5 3126.5,-86.5 3126.5,-86.5 3126.5,-80.5 3132.5,-74.5 3138.5,-74.5 3138.5,-74.5 3173.5,-74.5 3173.5,-74.5 3179.5,-74.5 3185.5,-80.5 3185.5,-86.5 3185.5,-86.5 3185.5,-98.5 3185.5,-98.5 3185.5,-104.5 3179.5,-110.5 3173.5,-110.5"/>
<text text-anchor="middle" x="3156" y="-90" font-family="sans" font-size="10.00">baderlab</text>
</g>
<!-- 29&#45;&gt;0 -->
<g id="edge29" class="edge">
<title>29&#45;&gt;0</title>
<path fill="none" stroke="grey" stroke-width="2" d="M3126.27,-75.04C3123.2,-73.83 3120.08,-72.78 3117,-72 2963.99,-33.15 1805.45,-21.25 1581.43,-19.3"/>
<polygon fill="grey" stroke="grey" stroke-width="2" points="1581.22,-15.8 1571.19,-19.22 1581.16,-22.8 1581.22,-15.8"/>
</g>
</g>
</svg>
