<?xml version="1.0" encoding="UTF-8" standalone="no"?>
<!DOCTYPE svg PUBLIC "-//W3C//DTD SVG 1.1//EN"
 "http://www.w3.org/Graphics/SVG/1.1/DTD/svg11.dtd">
<!-- Generated by graphviz version 2.38.0 (20140413.2041)
 -->
<!-- Title: snakemake_dag Pages: 1 -->
<svg width="3663pt" height="265pt"
 viewBox="0.00 0.00 3662.50 265.00" xmlns="http://www.w3.org/2000/svg" xmlns:xlink="http://www.w3.org/1999/xlink">
<g id="graph0" class="graph" transform="scale(1 1) rotate(0) translate(4 261)">
<title>snakemake_dag</title>
<polygon fill="white" stroke="none" points="-4,4 -4,-261 3658.5,-261 3658.5,4 -4,4"/>
<!-- 0 -->
<g id="node1" class="node"><title>0</title>
<path fill="none" stroke="#78d856" stroke-width="2" stroke-dasharray="5,2" d="M1773.5,-36C1773.5,-36 1743.5,-36 1743.5,-36 1737.5,-36 1731.5,-30 1731.5,-24 1731.5,-24 1731.5,-12 1731.5,-12 1731.5,-6 1737.5,-0 1743.5,-0 1743.5,-0 1773.5,-0 1773.5,-0 1779.5,-0 1785.5,-6 1785.5,-12 1785.5,-12 1785.5,-24 1785.5,-24 1785.5,-30 1779.5,-36 1773.5,-36"/>
<text text-anchor="middle" x="1758.5" y="-15.5" font-family="sans" font-size="10.00">all</text>
</g>
<!-- 1 -->
<g id="node2" class="node"><title>1</title>
<path fill="none" stroke="#b6d856" stroke-width="2" stroke-dasharray="5,2" d="M214.5,-110.5C214.5,-110.5 122.5,-110.5 122.5,-110.5 116.5,-110.5 110.5,-104.5 110.5,-98.5 110.5,-98.5 110.5,-86.5 110.5,-86.5 110.5,-80.5 116.5,-74.5 122.5,-74.5 122.5,-74.5 214.5,-74.5 214.5,-74.5 220.5,-74.5 226.5,-80.5 226.5,-86.5 226.5,-86.5 226.5,-98.5 226.5,-98.5 226.5,-104.5 220.5,-110.5 214.5,-110.5"/>
<text text-anchor="middle" x="168.5" y="-90" font-family="sans" font-size="10.00">preprocess_fantom5</text>
</g>
<!-- 1&#45;&gt;0 -->
<g id="edge1" class="edge"><title>1&#45;&gt;0</title>
<path fill="none" stroke="grey" stroke-width="2" d="M222.725,-74.4948C227.019,-73.5236 231.313,-72.6714 235.5,-72 534.646,-24.0298 1517.51,-19.4715 1721.3,-19.0435"/>
<polygon fill="grey" stroke="grey" stroke-width="2" points="1721.49,-22.5433 1731.49,-19.0243 1721.48,-15.5433 1721.49,-22.5433"/>
</g>
<!-- 2 -->
<g id="node3" class="node"><title>2</title>
<path fill="none" stroke="#d8bc56" stroke-width="2" stroke-dasharray="5,2" d="M332.5,-110.5C332.5,-110.5 256.5,-110.5 256.5,-110.5 250.5,-110.5 244.5,-104.5 244.5,-98.5 244.5,-98.5 244.5,-86.5 244.5,-86.5 244.5,-80.5 250.5,-74.5 256.5,-74.5 256.5,-74.5 332.5,-74.5 332.5,-74.5 338.5,-74.5 344.5,-80.5 344.5,-86.5 344.5,-86.5 344.5,-98.5 344.5,-98.5 344.5,-104.5 338.5,-110.5 332.5,-110.5"/>
<text text-anchor="middle" x="294.5" y="-90" font-family="sans" font-size="10.00">preprocess_dlrp2</text>
</g>
<!-- 2&#45;&gt;0 -->
<g id="edge2" class="edge"><title>2&#45;&gt;0</title>
<path fill="none" stroke="grey" stroke-width="2" d="M342.185,-74.4923C345.982,-73.5217 349.784,-72.6702 353.5,-72 627.133,-22.6437 1526.43,-19.1599 1721.12,-18.9911"/>
<polygon fill="grey" stroke="grey" stroke-width="2" points="1721.4,-22.491 1731.39,-18.9847 1721.39,-15.491 1721.4,-22.491"/>
</g>
<!-- 3 -->
<g id="node4" class="node"><title>3</title>
<path fill="none" stroke="#d8ac56" stroke-width="2" stroke-dasharray="5,2" d="M450.5,-110.5C450.5,-110.5 374.5,-110.5 374.5,-110.5 368.5,-110.5 362.5,-104.5 362.5,-98.5 362.5,-98.5 362.5,-86.5 362.5,-86.5 362.5,-80.5 368.5,-74.5 374.5,-74.5 374.5,-74.5 450.5,-74.5 450.5,-74.5 456.5,-74.5 462.5,-80.5 462.5,-86.5 462.5,-86.5 462.5,-98.5 462.5,-98.5 462.5,-104.5 456.5,-110.5 450.5,-110.5"/>
<text text-anchor="middle" x="412.5" y="-90" font-family="sans" font-size="10.00">download_iuphar</text>
</g>
<!-- 3&#45;&gt;0 -->
<g id="edge3" class="edge"><title>3&#45;&gt;0</title>
<path fill="none" stroke="grey" stroke-width="2" d="M460.513,-74.4235C464.201,-73.484 467.891,-72.6573 471.5,-72 720.769,-26.5939 1537.13,-20.0452 1721.34,-19.1399"/>
<polygon fill="grey" stroke="grey" stroke-width="2" points="1721.36,-22.6399 1731.35,-19.0933 1721.33,-15.64 1721.36,-22.6399"/>
</g>
<!-- 4 -->
<g id="node5" class="node"><title>4</title>
<path fill="none" stroke="#88d856" stroke-width="2" stroke-dasharray="5,2" d="M560,-110.5C560,-110.5 493,-110.5 493,-110.5 487,-110.5 481,-104.5 481,-98.5 481,-98.5 481,-86.5 481,-86.5 481,-80.5 487,-74.5 493,-74.5 493,-74.5 560,-74.5 560,-74.5 566,-74.5 572,-80.5 572,-86.5 572,-86.5 572,-98.5 572,-98.5 572,-104.5 566,-110.5 560,-110.5"/>
<text text-anchor="middle" x="526.5" y="-90" font-family="sans" font-size="10.00">download_hprd</text>
</g>
<!-- 4&#45;&gt;0 -->
<g id="edge4" class="edge"><title>4&#45;&gt;0</title>
<path fill="none" stroke="grey" stroke-width="2" d="M571.22,-74.43C574.666,-73.489 578.119,-72.6602 581.5,-72 807.511,-27.8632 1546.46,-20.3663 1721.21,-19.2006"/>
<polygon fill="grey" stroke="grey" stroke-width="2" points="1721.46,-22.6992 1731.44,-19.1354 1721.42,-15.6993 1721.46,-22.6992"/>
</g>
<!-- 5 -->
<g id="node6" class="node"><title>5</title>
<path fill="none" stroke="#61d856" stroke-width="2" stroke-dasharray="5,2" d="M670.5,-110.5C670.5,-110.5 602.5,-110.5 602.5,-110.5 596.5,-110.5 590.5,-104.5 590.5,-98.5 590.5,-98.5 590.5,-86.5 590.5,-86.5 590.5,-80.5 596.5,-74.5 602.5,-74.5 602.5,-74.5 670.5,-74.5 670.5,-74.5 676.5,-74.5 682.5,-80.5 682.5,-86.5 682.5,-86.5 682.5,-98.5 682.5,-98.5 682.5,-104.5 676.5,-110.5 670.5,-110.5"/>
<text text-anchor="middle" x="636.5" y="-90" font-family="sans" font-size="10.00">download_hgnc</text>
</g>
<!-- 5&#45;&gt;0 -->
<g id="edge5" class="edge"><title>5&#45;&gt;0</title>
<path fill="none" stroke="grey" stroke-width="2" d="M681.224,-74.4476C684.669,-73.5026 688.121,-72.668 691.5,-72 894.912,-31.7872 1556.94,-21.3882 1721.31,-19.3998"/>
<polygon fill="grey" stroke="grey" stroke-width="2" points="1721.45,-22.8985 1731.4,-19.2807 1721.36,-15.8989 1721.45,-22.8985"/>
</g>
<!-- 6 -->
<g id="node7" class="node"><title>6</title>
<path fill="none" stroke="#56a9d8" stroke-width="2" stroke-dasharray="5,2" d="M792.5,-113C792.5,-113 712.5,-113 712.5,-113 706.5,-113 700.5,-107 700.5,-101 700.5,-101 700.5,-84 700.5,-84 700.5,-78 706.5,-72 712.5,-72 712.5,-72 792.5,-72 792.5,-72 798.5,-72 804.5,-78 804.5,-84 804.5,-84 804.5,-101 804.5,-101 804.5,-107 798.5,-113 792.5,-113"/>
<text text-anchor="middle" x="752.5" y="-101" font-family="sans" font-size="10.00">download_string</text>
<text text-anchor="middle" x="752.5" y="-90" font-family="sans" font-size="10.00">taxid_string: 9606</text>
<text text-anchor="middle" x="752.5" y="-79" font-family="sans" font-size="10.00">v: v11.0</text>
</g>
<!-- 6&#45;&gt;0 -->
<g id="edge6" class="edge"><title>6&#45;&gt;0</title>
<path fill="none" stroke="grey" stroke-width="2" d="M804.521,-73.9144C807.54,-73.1928 810.548,-72.5455 813.5,-72 992.403,-38.9429 1568.85,-23.4191 1721.25,-19.8298"/>
<polygon fill="grey" stroke="grey" stroke-width="2" points="1721.57,-23.3235 1731.48,-19.5919 1721.4,-16.3254 1721.57,-23.3235"/>
</g>
<!-- 7 -->
<g id="node8" class="node"><title>7</title>
<path fill="none" stroke="#56a9d8" stroke-width="2" stroke-dasharray="5,2" d="M920.5,-113C920.5,-113 834.5,-113 834.5,-113 828.5,-113 822.5,-107 822.5,-101 822.5,-101 822.5,-84 822.5,-84 822.5,-78 828.5,-72 834.5,-72 834.5,-72 920.5,-72 920.5,-72 926.5,-72 932.5,-78 932.5,-84 932.5,-84 932.5,-101 932.5,-101 932.5,-107 926.5,-113 920.5,-113"/>
<text text-anchor="middle" x="877.5" y="-101" font-family="sans" font-size="10.00">download_string</text>
<text text-anchor="middle" x="877.5" y="-90" font-family="sans" font-size="10.00">taxid_string: 10090</text>
<text text-anchor="middle" x="877.5" y="-79" font-family="sans" font-size="10.00">v: v11.0</text>
</g>
<!-- 7&#45;&gt;0 -->
<g id="edge7" class="edge"><title>7&#45;&gt;0</title>
<path fill="none" stroke="grey" stroke-width="2" d="M932.81,-73.7933C935.734,-73.1256 938.643,-72.5206 941.5,-72 1238.47,-17.8792 1604.97,-17.0785 1721.27,-18.3776"/>
<polygon fill="grey" stroke="grey" stroke-width="2" points="1721.38,-21.8791 1731.43,-18.5038 1721.47,-14.8797 1721.38,-21.8791"/>
</g>
<!-- 8 -->
<g id="node9" class="node"><title>8</title>
<path fill="none" stroke="#56a9d8" stroke-width="2" stroke-dasharray="5,2" d="M1042.5,-113C1042.5,-113 962.5,-113 962.5,-113 956.5,-113 950.5,-107 950.5,-101 950.5,-101 950.5,-84 950.5,-84 950.5,-78 956.5,-72 962.5,-72 962.5,-72 1042.5,-72 1042.5,-72 1048.5,-72 1054.5,-78 1054.5,-84 1054.5,-84 1054.5,-101 1054.5,-101 1054.5,-107 1048.5,-113 1042.5,-113"/>
<text text-anchor="middle" x="1002.5" y="-101" font-family="sans" font-size="10.00">download_string</text>
<text text-anchor="middle" x="1002.5" y="-90" font-family="sans" font-size="10.00">taxid_string: 3702</text>
<text text-anchor="middle" x="1002.5" y="-79" font-family="sans" font-size="10.00">v: v11.0</text>
</g>
<!-- 8&#45;&gt;0 -->
<g id="edge8" class="edge"><title>8&#45;&gt;0</title>
<path fill="none" stroke="grey" stroke-width="2" d="M1054.53,-73.9855C1057.55,-73.2457 1060.55,-72.5751 1063.5,-72 1311.24,-23.6464 1616.67,-18.9031 1721.3,-18.8047"/>
<polygon fill="grey" stroke="grey" stroke-width="2" points="1721.36,-22.3046 1731.36,-18.8094 1721.37,-15.3046 1721.36,-22.3046"/>
</g>
<!-- 9 -->
<g id="node10" class="node"><title>9</title>
<path fill="none" stroke="#56a9d8" stroke-width="2" stroke-dasharray="5,2" d="M1170.5,-113C1170.5,-113 1084.5,-113 1084.5,-113 1078.5,-113 1072.5,-107 1072.5,-101 1072.5,-101 1072.5,-84 1072.5,-84 1072.5,-78 1078.5,-72 1084.5,-72 1084.5,-72 1170.5,-72 1170.5,-72 1176.5,-72 1182.5,-78 1182.5,-84 1182.5,-84 1182.5,-101 1182.5,-101 1182.5,-107 1176.5,-113 1170.5,-113"/>
<text text-anchor="middle" x="1127.5" y="-101" font-family="sans" font-size="10.00">download_string</text>
<text text-anchor="middle" x="1127.5" y="-90" font-family="sans" font-size="10.00">taxid_string: 10116</text>
<text text-anchor="middle" x="1127.5" y="-79" font-family="sans" font-size="10.00">v: v11.0</text>
</g>
<!-- 9&#45;&gt;0 -->
<g id="edge9" class="edge"><title>9&#45;&gt;0</title>
<path fill="none" stroke="grey" stroke-width="2" d="M1182.83,-73.8924C1185.75,-73.1987 1188.65,-72.5612 1191.5,-72 1388.61,-33.175 1630.05,-22.5925 1721.25,-19.8789"/>
<polygon fill="grey" stroke="grey" stroke-width="2" points="1721.47,-23.3742 1731.37,-19.5923 1721.27,-16.377 1721.47,-23.3742"/>
</g>
<!-- 10 -->
<g id="node11" class="node"><title>10</title>
<path fill="none" stroke="#56a9d8" stroke-width="2" stroke-dasharray="5,2" d="M1292.5,-113C1292.5,-113 1212.5,-113 1212.5,-113 1206.5,-113 1200.5,-107 1200.5,-101 1200.5,-101 1200.5,-84 1200.5,-84 1200.5,-78 1206.5,-72 1212.5,-72 1212.5,-72 1292.5,-72 1292.5,-72 1298.5,-72 1304.5,-78 1304.5,-84 1304.5,-84 1304.5,-101 1304.5,-101 1304.5,-107 1298.5,-113 1292.5,-113"/>
<text text-anchor="middle" x="1252.5" y="-101" font-family="sans" font-size="10.00">download_string</text>
<text text-anchor="middle" x="1252.5" y="-90" font-family="sans" font-size="10.00">taxid_string: 9913</text>
<text text-anchor="middle" x="1252.5" y="-79" font-family="sans" font-size="10.00">v: v11.0</text>
</g>
<!-- 10&#45;&gt;0 -->
<g id="edge10" class="edge"><title>10&#45;&gt;0</title>
<path fill="none" stroke="grey" stroke-width="2" d="M1304.57,-74.1352C1307.57,-73.3573 1310.57,-72.6374 1313.5,-72 1462.54,-39.6138 1644.26,-25.7494 1721.22,-21.031"/>
<polygon fill="grey" stroke="grey" stroke-width="2" points="1721.59,-24.5149 1731.37,-20.4249 1721.18,-17.5273 1721.59,-24.5149"/>
</g>
<!-- 11 -->
<g id="node12" class="node"><title>11</title>
<path fill="none" stroke="#56a9d8" stroke-width="2" stroke-dasharray="5,2" d="M1426.5,-113C1426.5,-113 1334.5,-113 1334.5,-113 1328.5,-113 1322.5,-107 1322.5,-101 1322.5,-101 1322.5,-84 1322.5,-84 1322.5,-78 1328.5,-72 1334.5,-72 1334.5,-72 1426.5,-72 1426.5,-72 1432.5,-72 1438.5,-78 1438.5,-84 1438.5,-84 1438.5,-101 1438.5,-101 1438.5,-107 1432.5,-113 1426.5,-113"/>
<text text-anchor="middle" x="1380.5" y="-101" font-family="sans" font-size="10.00">download_string</text>
<text text-anchor="middle" x="1380.5" y="-90" font-family="sans" font-size="10.00">taxid_string: 224308</text>
<text text-anchor="middle" x="1380.5" y="-79" font-family="sans" font-size="10.00">v: v11.0</text>
</g>
<!-- 11&#45;&gt;0 -->
<g id="edge11" class="edge"><title>11&#45;&gt;0</title>
<path fill="none" stroke="grey" stroke-width="2" d="M1438.86,-74.0873C1441.78,-73.3523 1444.67,-72.6515 1447.5,-72 1545.24,-49.5264 1662.26,-32.0875 1720.99,-23.9782"/>
<polygon fill="grey" stroke="grey" stroke-width="2" points="1721.82,-27.3966 1731.25,-22.5734 1720.87,-20.4612 1721.82,-27.3966"/>
</g>
<!-- 12 -->
<g id="node13" class="node"><title>12</title>
<path fill="none" stroke="#56a9d8" stroke-width="2" stroke-dasharray="5,2" d="M1554.5,-113C1554.5,-113 1468.5,-113 1468.5,-113 1462.5,-113 1456.5,-107 1456.5,-101 1456.5,-101 1456.5,-84 1456.5,-84 1456.5,-78 1462.5,-72 1468.5,-72 1468.5,-72 1554.5,-72 1554.5,-72 1560.5,-72 1566.5,-78 1566.5,-84 1566.5,-84 1566.5,-101 1566.5,-101 1566.5,-107 1560.5,-113 1554.5,-113"/>
<text text-anchor="middle" x="1511.5" y="-101" font-family="sans" font-size="10.00">download_string</text>
<text text-anchor="middle" x="1511.5" y="-90" font-family="sans" font-size="10.00">taxid_string: 44689</text>
<text text-anchor="middle" x="1511.5" y="-79" font-family="sans" font-size="10.00">v: v11.0</text>
</g>
<!-- 12&#45;&gt;0 -->
<g id="edge12" class="edge"><title>12&#45;&gt;0</title>
<path fill="none" stroke="grey" stroke-width="2" d="M1566.64,-74.6456C1569.64,-73.7468 1572.61,-72.8602 1575.5,-72 1626.07,-56.9729 1684.67,-40.0965 1721.65,-29.5089"/>
<polygon fill="grey" stroke="grey" stroke-width="2" points="1722.84,-32.811 1731.49,-26.6961 1720.91,-26.0809 1722.84,-32.811"/>
</g>
<!-- 13 -->
<g id="node14" class="node"><title>13</title>
<path fill="none" stroke="#56a9d8" stroke-width="2" stroke-dasharray="5,2" d="M1676.5,-113C1676.5,-113 1596.5,-113 1596.5,-113 1590.5,-113 1584.5,-107 1584.5,-101 1584.5,-101 1584.5,-84 1584.5,-84 1584.5,-78 1590.5,-72 1596.5,-72 1596.5,-72 1676.5,-72 1676.5,-72 1682.5,-72 1688.5,-78 1688.5,-84 1688.5,-84 1688.5,-101 1688.5,-101 1688.5,-107 1682.5,-113 1676.5,-113"/>
<text text-anchor="middle" x="1636.5" y="-101" font-family="sans" font-size="10.00">download_string</text>
<text text-anchor="middle" x="1636.5" y="-90" font-family="sans" font-size="10.00">taxid_string: 6239</text>
<text text-anchor="middle" x="1636.5" y="-79" font-family="sans" font-size="10.00">v: v11.0</text>
</g>
<!-- 13&#45;&gt;0 -->
<g id="edge13" class="edge"><title>13&#45;&gt;0</title>
<path fill="none" stroke="grey" stroke-width="2" d="M1669.51,-71.8805C1685.83,-62.1854 1705.55,-50.4641 1722.28,-40.5231"/>
<polygon fill="grey" stroke="grey" stroke-width="2" points="1724.42,-43.3252 1731.23,-35.2077 1720.84,-37.3075 1724.42,-43.3252"/>
</g>
<!-- 14 -->
<g id="node15" class="node"><title>14</title>
<path fill="none" stroke="#56a9d8" stroke-width="2" stroke-dasharray="5,2" d="M1798.5,-113C1798.5,-113 1718.5,-113 1718.5,-113 1712.5,-113 1706.5,-107 1706.5,-101 1706.5,-101 1706.5,-84 1706.5,-84 1706.5,-78 1712.5,-72 1718.5,-72 1718.5,-72 1798.5,-72 1798.5,-72 1804.5,-72 1810.5,-78 1810.5,-84 1810.5,-84 1810.5,-101 1810.5,-101 1810.5,-107 1804.5,-113 1798.5,-113"/>
<text text-anchor="middle" x="1758.5" y="-101" font-family="sans" font-size="10.00">download_string</text>
<text text-anchor="middle" x="1758.5" y="-90" font-family="sans" font-size="10.00">taxid_string: 7227</text>
<text text-anchor="middle" x="1758.5" y="-79" font-family="sans" font-size="10.00">v: v11.0</text>
</g>
<!-- 14&#45;&gt;0 -->
<g id="edge14" class="edge"><title>14&#45;&gt;0</title>
<path fill="none" stroke="grey" stroke-width="2" d="M1758.5,-71.6891C1758.5,-63.9066 1758.5,-54.8417 1758.5,-46.4471"/>
<polygon fill="grey" stroke="grey" stroke-width="2" points="1762,-46.3194 1758.5,-36.3195 1755,-46.3195 1762,-46.3194"/>
</g>
<!-- 15 -->
<g id="node16" class="node"><title>15</title>
<path fill="none" stroke="#56a9d8" stroke-width="2" stroke-dasharray="5,2" d="M1920.5,-113C1920.5,-113 1840.5,-113 1840.5,-113 1834.5,-113 1828.5,-107 1828.5,-101 1828.5,-101 1828.5,-84 1828.5,-84 1828.5,-78 1834.5,-72 1840.5,-72 1840.5,-72 1920.5,-72 1920.5,-72 1926.5,-72 1932.5,-78 1932.5,-84 1932.5,-84 1932.5,-101 1932.5,-101 1932.5,-107 1926.5,-113 1920.5,-113"/>
<text text-anchor="middle" x="1880.5" y="-101" font-family="sans" font-size="10.00">download_string</text>
<text text-anchor="middle" x="1880.5" y="-90" font-family="sans" font-size="10.00">taxid_string: 7955</text>
<text text-anchor="middle" x="1880.5" y="-79" font-family="sans" font-size="10.00">v: v11.0</text>
</g>
<!-- 15&#45;&gt;0 -->
<g id="edge15" class="edge"><title>15&#45;&gt;0</title>
<path fill="none" stroke="grey" stroke-width="2" d="M1847.49,-71.8805C1831.17,-62.1854 1811.45,-50.4641 1794.72,-40.5231"/>
<polygon fill="grey" stroke="grey" stroke-width="2" points="1796.16,-37.3075 1785.77,-35.2077 1792.58,-43.3252 1796.16,-37.3075"/>
</g>
<!-- 16 -->
<g id="node17" class="node"><title>16</title>
<path fill="none" stroke="#56a9d8" stroke-width="2" stroke-dasharray="5,2" d="M2042.5,-113C2042.5,-113 1962.5,-113 1962.5,-113 1956.5,-113 1950.5,-107 1950.5,-101 1950.5,-101 1950.5,-84 1950.5,-84 1950.5,-78 1956.5,-72 1962.5,-72 1962.5,-72 2042.5,-72 2042.5,-72 2048.5,-72 2054.5,-78 2054.5,-84 2054.5,-84 2054.5,-101 2054.5,-101 2054.5,-107 2048.5,-113 2042.5,-113"/>
<text text-anchor="middle" x="2002.5" y="-101" font-family="sans" font-size="10.00">download_string</text>
<text text-anchor="middle" x="2002.5" y="-90" font-family="sans" font-size="10.00">taxid_string: 9031</text>
<text text-anchor="middle" x="2002.5" y="-79" font-family="sans" font-size="10.00">v: v11.0</text>
</g>
<!-- 16&#45;&gt;0 -->
<g id="edge16" class="edge"><title>16&#45;&gt;0</title>
<path fill="none" stroke="grey" stroke-width="2" d="M1950.29,-74.7047C1947.32,-73.7817 1944.37,-72.8747 1941.5,-72 1891.03,-56.628 1832.41,-39.8365 1795.39,-29.3619"/>
<polygon fill="grey" stroke="grey" stroke-width="2" points="1796.12,-25.9313 1785.54,-26.5814 1794.22,-32.6678 1796.12,-25.9313"/>
</g>
<!-- 17 -->
<g id="node18" class="node"><title>17</title>
<path fill="none" stroke="#56a9d8" stroke-width="2" stroke-dasharray="5,2" d="M2164.5,-113C2164.5,-113 2084.5,-113 2084.5,-113 2078.5,-113 2072.5,-107 2072.5,-101 2072.5,-101 2072.5,-84 2072.5,-84 2072.5,-78 2078.5,-72 2084.5,-72 2084.5,-72 2164.5,-72 2164.5,-72 2170.5,-72 2176.5,-78 2176.5,-84 2176.5,-84 2176.5,-101 2176.5,-101 2176.5,-107 2170.5,-113 2164.5,-113"/>
<text text-anchor="middle" x="2124.5" y="-101" font-family="sans" font-size="10.00">download_string</text>
<text text-anchor="middle" x="2124.5" y="-90" font-family="sans" font-size="10.00">taxid_string: 9601</text>
<text text-anchor="middle" x="2124.5" y="-79" font-family="sans" font-size="10.00">v: v11.0</text>
</g>
<!-- 17&#45;&gt;0 -->
<g id="edge17" class="edge"><title>17&#45;&gt;0</title>
<path fill="none" stroke="grey" stroke-width="2" d="M2072.39,-74.323C2069.39,-73.4973 2066.42,-72.7157 2063.5,-72 1968.17,-48.5986 1853.63,-31.6123 1795.81,-23.798"/>
<polygon fill="grey" stroke="grey" stroke-width="2" points="1796.06,-20.3012 1785.69,-22.4462 1795.13,-27.2396 1796.06,-20.3012"/>
</g>
<!-- 18 -->
<g id="node19" class="node"><title>18</title>
<path fill="none" stroke="#56a9d8" stroke-width="2" stroke-dasharray="5,2" d="M2292.5,-113C2292.5,-113 2206.5,-113 2206.5,-113 2200.5,-113 2194.5,-107 2194.5,-101 2194.5,-101 2194.5,-84 2194.5,-84 2194.5,-78 2200.5,-72 2206.5,-72 2206.5,-72 2292.5,-72 2292.5,-72 2298.5,-72 2304.5,-78 2304.5,-84 2304.5,-84 2304.5,-101 2304.5,-101 2304.5,-107 2298.5,-113 2292.5,-113"/>
<text text-anchor="middle" x="2249.5" y="-101" font-family="sans" font-size="10.00">download_string</text>
<text text-anchor="middle" x="2249.5" y="-90" font-family="sans" font-size="10.00">taxid_string: 83332</text>
<text text-anchor="middle" x="2249.5" y="-79" font-family="sans" font-size="10.00">v: v11.0</text>
</g>
<!-- 18&#45;&gt;0 -->
<g id="edge18" class="edge"><title>18&#45;&gt;0</title>
<path fill="none" stroke="grey" stroke-width="2" d="M2194.5,-74.0844C2191.47,-73.3304 2188.45,-72.6284 2185.5,-72 2043.43,-41.7758 1870.85,-26.8892 1796.06,-21.4772"/>
<polygon fill="grey" stroke="grey" stroke-width="2" points="1795.97,-17.9624 1785.75,-20.7468 1795.47,-24.9449 1795.97,-17.9624"/>
</g>
<!-- 19 -->
<g id="node20" class="node"><title>19</title>
<path fill="none" stroke="#56a9d8" stroke-width="2" stroke-dasharray="5,2" d="M2426.5,-113C2426.5,-113 2334.5,-113 2334.5,-113 2328.5,-113 2322.5,-107 2322.5,-101 2322.5,-101 2322.5,-84 2322.5,-84 2322.5,-78 2328.5,-72 2334.5,-72 2334.5,-72 2426.5,-72 2426.5,-72 2432.5,-72 2438.5,-78 2438.5,-84 2438.5,-84 2438.5,-101 2438.5,-101 2438.5,-107 2432.5,-113 2426.5,-113"/>
<text text-anchor="middle" x="2380.5" y="-101" font-family="sans" font-size="10.00">download_string</text>
<text text-anchor="middle" x="2380.5" y="-90" font-family="sans" font-size="10.00">taxid_string: 243232</text>
<text text-anchor="middle" x="2380.5" y="-79" font-family="sans" font-size="10.00">v: v11.0</text>
</g>
<!-- 19&#45;&gt;0 -->
<g id="edge19" class="edge"><title>19&#45;&gt;0</title>
<path fill="none" stroke="grey" stroke-width="2" d="M2322.19,-73.8294C2319.26,-73.1626 2316.36,-72.5469 2313.5,-72 2120.98,-35.1309 1885.73,-23.4268 1795.84,-20.1456"/>
<polygon fill="grey" stroke="grey" stroke-width="2" points="1795.73,-16.6396 1785.61,-19.7861 1795.48,-23.6353 1795.73,-16.6396"/>
</g>
<!-- 20 -->
<g id="node21" class="node"><title>20</title>
<path fill="none" stroke="#56a9d8" stroke-width="2" stroke-dasharray="5,2" d="M2554.5,-113C2554.5,-113 2468.5,-113 2468.5,-113 2462.5,-113 2456.5,-107 2456.5,-101 2456.5,-101 2456.5,-84 2456.5,-84 2456.5,-78 2462.5,-72 2468.5,-72 2468.5,-72 2554.5,-72 2554.5,-72 2560.5,-72 2566.5,-78 2566.5,-84 2566.5,-84 2566.5,-101 2566.5,-101 2566.5,-107 2560.5,-113 2554.5,-113"/>
<text text-anchor="middle" x="2511.5" y="-101" font-family="sans" font-size="10.00">download_string</text>
<text text-anchor="middle" x="2511.5" y="-90" font-family="sans" font-size="10.00">taxid_string: 71421</text>
<text text-anchor="middle" x="2511.5" y="-79" font-family="sans" font-size="10.00">v: v11.0</text>
</g>
<!-- 20&#45;&gt;0 -->
<g id="edge20" class="edge"><title>20&#45;&gt;0</title>
<path fill="none" stroke="grey" stroke-width="2" d="M2456.18,-73.8351C2453.26,-73.1564 2450.35,-72.5378 2447.5,-72 2201.87,-25.7118 1899.69,-19.6622 1795.7,-19.014"/>
<polygon fill="grey" stroke="grey" stroke-width="2" points="1795.72,-15.5141 1785.7,-18.9649 1795.68,-22.514 1795.72,-15.5141"/>
</g>
<!-- 21 -->
<g id="node22" class="node"><title>21</title>
<path fill="none" stroke="#56a9d8" stroke-width="2" stroke-dasharray="5,2" d="M2676.5,-113C2676.5,-113 2596.5,-113 2596.5,-113 2590.5,-113 2584.5,-107 2584.5,-101 2584.5,-101 2584.5,-84 2584.5,-84 2584.5,-78 2590.5,-72 2596.5,-72 2596.5,-72 2676.5,-72 2676.5,-72 2682.5,-72 2688.5,-78 2688.5,-84 2688.5,-84 2688.5,-101 2688.5,-101 2688.5,-107 2682.5,-113 2676.5,-113"/>
<text text-anchor="middle" x="2636.5" y="-101" font-family="sans" font-size="10.00">download_string</text>
<text text-anchor="middle" x="2636.5" y="-90" font-family="sans" font-size="10.00">taxid_string: 8364</text>
<text text-anchor="middle" x="2636.5" y="-79" font-family="sans" font-size="10.00">v: v11.0</text>
</g>
<!-- 21&#45;&gt;0 -->
<g id="edge21" class="edge"><title>21&#45;&gt;0</title>
<path fill="none" stroke="grey" stroke-width="2" d="M2584.47,-73.9454C2581.46,-73.2159 2578.45,-72.5584 2575.5,-72 2422.88,-43.1088 1935.37,-24.9187 1796.03,-20.2156"/>
<polygon fill="grey" stroke="grey" stroke-width="2" points="1795.97,-16.7118 1785.86,-19.8756 1795.74,-23.7079 1795.97,-16.7118"/>
</g>
<!-- 22 -->
<g id="node23" class="node"><title>22</title>
<path fill="none" stroke="#56a9d8" stroke-width="2" stroke-dasharray="5,2" d="M2810.5,-113C2810.5,-113 2718.5,-113 2718.5,-113 2712.5,-113 2706.5,-107 2706.5,-101 2706.5,-101 2706.5,-84 2706.5,-84 2706.5,-78 2712.5,-72 2718.5,-72 2718.5,-72 2810.5,-72 2810.5,-72 2816.5,-72 2822.5,-78 2822.5,-84 2822.5,-84 2822.5,-101 2822.5,-101 2822.5,-107 2816.5,-113 2810.5,-113"/>
<text text-anchor="middle" x="2764.5" y="-101" font-family="sans" font-size="10.00">download_string</text>
<text text-anchor="middle" x="2764.5" y="-90" font-family="sans" font-size="10.00">taxid_string: 199310</text>
<text text-anchor="middle" x="2764.5" y="-79" font-family="sans" font-size="10.00">v: v11.0</text>
</g>
<!-- 22&#45;&gt;0 -->
<g id="edge22" class="edge"><title>22&#45;&gt;0</title>
<path fill="none" stroke="grey" stroke-width="2" d="M2706.22,-73.6926C2703.28,-73.0619 2700.37,-72.4913 2697.5,-72 2519.52,-41.4841 1948.09,-24.1345 1795.99,-19.9806"/>
<polygon fill="grey" stroke="grey" stroke-width="2" points="1795.86,-16.476 1785.77,-19.7043 1795.67,-23.4735 1795.86,-16.476"/>
</g>
<!-- 23 -->
<g id="node24" class="node"><title>23</title>
<path fill="none" stroke="#56a9d8" stroke-width="2" stroke-dasharray="5,2" d="M2932.5,-113C2932.5,-113 2852.5,-113 2852.5,-113 2846.5,-113 2840.5,-107 2840.5,-101 2840.5,-101 2840.5,-84 2840.5,-84 2840.5,-78 2846.5,-72 2852.5,-72 2852.5,-72 2932.5,-72 2932.5,-72 2938.5,-72 2944.5,-78 2944.5,-84 2944.5,-84 2944.5,-101 2944.5,-101 2944.5,-107 2938.5,-113 2932.5,-113"/>
<text text-anchor="middle" x="2892.5" y="-101" font-family="sans" font-size="10.00">download_string</text>
<text text-anchor="middle" x="2892.5" y="-90" font-family="sans" font-size="10.00">taxid_string: 9823</text>
<text text-anchor="middle" x="2892.5" y="-79" font-family="sans" font-size="10.00">v: v11.0</text>
</g>
<!-- 23&#45;&gt;0 -->
<g id="edge23" class="edge"><title>23&#45;&gt;0</title>
<path fill="none" stroke="grey" stroke-width="2" d="M2840.48,-73.8907C2837.46,-73.1751 2834.45,-72.5356 2831.5,-72 2626.33,-34.7975 1961.04,-22.1504 1795.87,-19.5445"/>
<polygon fill="grey" stroke="grey" stroke-width="2" points="1795.78,-16.0427 1785.73,-19.3872 1795.67,-23.0419 1795.78,-16.0427"/>
</g>
<!-- 24 -->
<g id="node25" class="node"><title>24</title>
<path fill="none" stroke="#56a9d8" stroke-width="2" stroke-dasharray="5,2" d="M3066.5,-113C3066.5,-113 2974.5,-113 2974.5,-113 2968.5,-113 2962.5,-107 2962.5,-101 2962.5,-101 2962.5,-84 2962.5,-84 2962.5,-78 2968.5,-72 2974.5,-72 2974.5,-72 3066.5,-72 3066.5,-72 3072.5,-72 3078.5,-78 3078.5,-84 3078.5,-84 3078.5,-101 3078.5,-101 3078.5,-107 3072.5,-113 3066.5,-113"/>
<text text-anchor="middle" x="3020.5" y="-101" font-family="sans" font-size="10.00">download_string</text>
<text text-anchor="middle" x="3020.5" y="-90" font-family="sans" font-size="10.00">taxid_string: 224325</text>
<text text-anchor="middle" x="3020.5" y="-79" font-family="sans" font-size="10.00">v: v11.0</text>
</g>
<!-- 24&#45;&gt;0 -->
<g id="edge24" class="edge"><title>24&#45;&gt;0</title>
<path fill="none" stroke="grey" stroke-width="2" d="M2962.22,-73.65C2959.29,-73.0306 2956.37,-72.474 2953.5,-72 2722.59,-33.8422 1971.93,-21.7913 1795.75,-19.4553"/>
<polygon fill="grey" stroke="grey" stroke-width="2" points="1795.73,-15.9548 1785.68,-19.3241 1795.64,-22.9542 1795.73,-15.9548"/>
</g>
<!-- 25 -->
<g id="node26" class="node"><title>25</title>
<path fill="none" stroke="#d87d56" stroke-width="2" stroke-dasharray="5,2" d="M3200.5,-110.5C3200.5,-110.5 3108.5,-110.5 3108.5,-110.5 3102.5,-110.5 3096.5,-104.5 3096.5,-98.5 3096.5,-98.5 3096.5,-86.5 3096.5,-86.5 3096.5,-80.5 3102.5,-74.5 3108.5,-74.5 3108.5,-74.5 3200.5,-74.5 3200.5,-74.5 3206.5,-74.5 3212.5,-80.5 3212.5,-86.5 3212.5,-86.5 3212.5,-98.5 3212.5,-98.5 3212.5,-104.5 3206.5,-110.5 3200.5,-110.5"/>
<text text-anchor="middle" x="3154.5" y="-90" font-family="sans" font-size="10.00">download_uniprotkb</text>
</g>
<!-- 25&#45;&gt;0 -->
<g id="edge25" class="edge"><title>25&#45;&gt;0</title>
<path fill="none" stroke="grey" stroke-width="2" d="M3099.9,-74.4351C3095.73,-73.493 3091.57,-72.6625 3087.5,-72 2828.86,-29.8524 1984.17,-20.7798 1795.92,-19.2641"/>
<polygon fill="grey" stroke="grey" stroke-width="2" points="1795.73,-15.7626 1785.71,-19.1842 1795.68,-22.7624 1795.73,-15.7626"/>
</g>
<!-- 26 -->
<g id="node27" class="node"><title>26</title>
<path fill="none" stroke="#d89556" stroke-width="2" stroke-dasharray="5,2" d="M3366,-110.5C3366,-110.5 3243,-110.5 3243,-110.5 3237,-110.5 3231,-104.5 3231,-98.5 3231,-98.5 3231,-86.5 3231,-86.5 3231,-80.5 3237,-74.5 3243,-74.5 3243,-74.5 3366,-74.5 3366,-74.5 3372,-74.5 3378,-80.5 3378,-86.5 3378,-86.5 3378,-98.5 3378,-98.5 3378,-104.5 3372,-110.5 3366,-110.5"/>
<text text-anchor="middle" x="3304.5" y="-90" font-family="sans" font-size="10.00">download_gene2accession</text>
</g>
<!-- 26&#45;&gt;0 -->
<g id="edge26" class="edge"><title>26&#45;&gt;0</title>
<path fill="none" stroke="grey" stroke-width="2" d="M3236.76,-74.4516C3231.61,-73.5056 3226.49,-72.6698 3221.5,-72 2933.8,-33.3677 1994.74,-21.4805 1795.76,-19.3677"/>
<polygon fill="grey" stroke="grey" stroke-width="2" points="1795.57,-15.8656 1785.54,-19.2609 1795.5,-22.8653 1795.57,-15.8656"/>
</g>
<!-- 27 -->
<g id="node28" class="node"><title>27</title>
<path fill="none" stroke="#d8d356" stroke-width="2" stroke-dasharray="5,2" d="M99,-185C99,-185 12,-185 12,-185 6,-185 7.10543e-15,-179 7.10543e-15,-173 7.10543e-15,-173 7.10543e-15,-161 7.10543e-15,-161 7.10543e-15,-155 6,-149 12,-149 12,-149 99,-149 99,-149 105,-149 111,-155 111,-161 111,-161 111,-173 111,-173 111,-179 105,-185 99,-185"/>
<text text-anchor="middle" x="55.5" y="-164.5" font-family="sans" font-size="10.00">download_ensembl</text>
</g>
<!-- 27&#45;&gt;0 -->
<g id="edge27" class="edge"><title>27&#45;&gt;0</title>
<path fill="none" stroke="grey" stroke-width="2" d="M58.3816,-148.907C63.1065,-126.849 74.7975,-89.2603 101.5,-72 171.765,-26.5812 1481.72,-19.9442 1721.11,-19.1094"/>
<polygon fill="grey" stroke="grey" stroke-width="2" points="1721.39,-22.6085 1731.38,-19.0749 1721.37,-15.6086 1721.39,-22.6085"/>
</g>
<!-- 27&#45;&gt;1 -->
<g id="edge31" class="edge"><title>27&#45;&gt;1</title>
<path fill="none" stroke="grey" stroke-width="2" d="M82.2794,-148.819C97.478,-139.067 116.688,-126.742 133.116,-116.202"/>
<polygon fill="grey" stroke="grey" stroke-width="2" points="135.386,-118.904 141.913,-110.558 131.606,-113.012 135.386,-118.904"/>
</g>
<!-- 28 -->
<g id="node29" class="node"><title>28</title>
<path fill="none" stroke="#c6d856" stroke-width="2" stroke-dasharray="5,2" d="M3512.5,-110.5C3512.5,-110.5 3408.5,-110.5 3408.5,-110.5 3402.5,-110.5 3396.5,-104.5 3396.5,-98.5 3396.5,-98.5 3396.5,-86.5 3396.5,-86.5 3396.5,-80.5 3402.5,-74.5 3408.5,-74.5 3408.5,-74.5 3512.5,-74.5 3512.5,-74.5 3518.5,-74.5 3524.5,-80.5 3524.5,-86.5 3524.5,-86.5 3524.5,-98.5 3524.5,-98.5 3524.5,-104.5 3518.5,-110.5 3512.5,-110.5"/>
<text text-anchor="middle" x="3460.5" y="-90" font-family="sans" font-size="10.00">download_cellphonedb</text>
</g>
<!-- 28&#45;&gt;0 -->
<g id="edge28" class="edge"><title>28&#45;&gt;0</title>
<path fill="none" stroke="grey" stroke-width="2" d="M3401.38,-74.4951C3396.71,-73.5238 3392.04,-72.6715 3387.5,-72 3065.76,-24.4346 2008.32,-19.5572 1795.87,-19.0571"/>
<polygon fill="grey" stroke="grey" stroke-width="2" points="1795.57,-15.5566 1785.56,-19.0348 1795.56,-22.5566 1795.57,-15.5566"/>
</g>
<!-- 29 -->
<g id="node30" class="node"><title>29</title>
<path fill="none" stroke="#56c1d8" stroke-width="2" stroke-dasharray="5,2" d="M3642.5,-110.5C3642.5,-110.5 3554.5,-110.5 3554.5,-110.5 3548.5,-110.5 3542.5,-104.5 3542.5,-98.5 3542.5,-98.5 3542.5,-86.5 3542.5,-86.5 3542.5,-80.5 3548.5,-74.5 3554.5,-74.5 3554.5,-74.5 3642.5,-74.5 3642.5,-74.5 3648.5,-74.5 3654.5,-80.5 3654.5,-86.5 3654.5,-86.5 3654.5,-98.5 3654.5,-98.5 3654.5,-104.5 3648.5,-110.5 3642.5,-110.5"/>
<text text-anchor="middle" x="3598.5" y="-90" font-family="sans" font-size="10.00">download_baderlab</text>
</g>
<!-- 29&#45;&gt;0 -->
<g id="edge29" class="edge"><title>29&#45;&gt;0</title>
<path fill="none" stroke="grey" stroke-width="2" d="M3545.91,-74.4686C3541.74,-73.5034 3537.57,-72.6596 3533.5,-72 3182.05,-15.0478 2019.93,-17.7203 1796.02,-18.7875"/>
<polygon fill="grey" stroke="grey" stroke-width="2" points="1795.76,-15.2887 1785.78,-18.8384 1795.79,-22.2886 1795.76,-15.2887"/>
</g>
<!-- 30 -->
<g id="node31" class="node"><title>30</title>
<path fill="none" stroke="#56d88a" stroke-width="2" stroke-dasharray="5,2" d="M227.5,-185C227.5,-185 141.5,-185 141.5,-185 135.5,-185 129.5,-179 129.5,-173 129.5,-173 129.5,-161 129.5,-161 129.5,-155 135.5,-149 141.5,-149 141.5,-149 227.5,-149 227.5,-149 233.5,-149 239.5,-155 239.5,-161 239.5,-161 239.5,-173 239.5,-173 239.5,-179 233.5,-185 227.5,-185"/>
<text text-anchor="middle" x="184.5" y="-164.5" font-family="sans" font-size="10.00">download_fantom5</text>
</g>
<!-- 30&#45;&gt;1 -->
<g id="edge30" class="edge"><title>30&#45;&gt;1</title>
<path fill="none" stroke="grey" stroke-width="2" d="M180.708,-148.819C178.835,-140.331 176.532,-129.894 174.433,-120.382"/>
<polygon fill="grey" stroke="grey" stroke-width="2" points="177.837,-119.569 172.265,-110.558 171.002,-121.077 177.837,-119.569"/>
</g>
<!-- 31 -->
<g id="node32" class="node"><title>31</title>
<path fill="none" stroke="#56d873" stroke-width="2" stroke-dasharray="5,2" d="M339.5,-185C339.5,-185 269.5,-185 269.5,-185 263.5,-185 257.5,-179 257.5,-173 257.5,-173 257.5,-161 257.5,-161 257.5,-155 263.5,-149 269.5,-149 269.5,-149 339.5,-149 339.5,-149 345.5,-149 351.5,-155 351.5,-161 351.5,-161 351.5,-173 351.5,-173 351.5,-179 345.5,-185 339.5,-185"/>
<text text-anchor="middle" x="304.5" y="-164.5" font-family="sans" font-size="10.00">preprocess_dlrp</text>
</g>
<!-- 31&#45;&gt;2 -->
<g id="edge32" class="edge"><title>31&#45;&gt;2</title>
<path fill="none" stroke="grey" stroke-width="2" d="M302.13,-148.819C300.972,-140.422 299.551,-130.116 298.25,-120.686"/>
<polygon fill="grey" stroke="grey" stroke-width="2" points="301.686,-119.986 296.853,-110.558 294.752,-120.943 301.686,-119.986"/>
</g>
<!-- 32 -->
<g id="node33" class="node"><title>32</title>
<path fill="none" stroke="#d85656" stroke-width="2" stroke-dasharray="5,2" d="M336.5,-257C336.5,-257 272.5,-257 272.5,-257 266.5,-257 260.5,-251 260.5,-245 260.5,-245 260.5,-233 260.5,-233 260.5,-227 266.5,-221 272.5,-221 272.5,-221 336.5,-221 336.5,-221 342.5,-221 348.5,-227 348.5,-233 348.5,-233 348.5,-245 348.5,-245 348.5,-251 342.5,-257 336.5,-257"/>
<text text-anchor="middle" x="304.5" y="-236.5" font-family="sans" font-size="10.00">download_dlrp</text>
</g>
<!-- 32&#45;&gt;31 -->
<g id="edge33" class="edge"><title>32&#45;&gt;31</title>
<path fill="none" stroke="grey" stroke-width="2" d="M304.5,-220.697C304.5,-212.983 304.5,-203.712 304.5,-195.112"/>
<polygon fill="grey" stroke="grey" stroke-width="2" points="308,-195.104 304.5,-185.104 301,-195.104 308,-195.104"/>
</g>
</g>
</svg>
